<?xml version="1.0" standalone="no"?>
<!DOCTYPE svg PUBLIC "-//W3C//DTD SVG 1.1//EN" "http://www.w3.org/Graphics/SVG/1.1/DTD/svg11.dtd" >
<svg>
<metadata>
Created by FontForge 20110222 at Fri Oct 18 05:08:39 2013
 By Orthosie Webhosting
Copyright (c) 2012 by James T. Edmondson. All rights reserved.
</metadata>
<defs>
<font id="EdmondsansRegular" horiz-adv-x="0" >
  <font-face 
    font-family="EdmondsansRegular"
    font-weight="400"
    font-stretch="normal"
    units-per-em="1000"
    panose-1="2 0 0 0 0 0 0 0 0 0"
    ascent="750"
    descent="-250"
    x-height="456"
    cap-height="700"
    bbox="-122 -309 909 914"
    underline-thickness="50"
    underline-position="-50"
    unicode-range="U+0020-FB02"
  />
<missing-glyph horiz-adv-x="334" 
 />
    <glyph glyph-name="fi" unicode="fi" horiz-adv-x="480" 
d="M420 0h-70v456h70v-456zM328 573q0 23 17 40t40 17t40 -17t17 -40t-17 -40t-40 -17t-40 17t-17 40zM375 703l-49 -39q-26 39 -71 39q-38 0 -60.5 -26t-22.5 -76v-145h114v-60h-114v-396h-69v396h-77v60h77v143q0 74 40.5 120t106.5 46q83 0 125 -62z" />
    <glyph glyph-name="fl" unicode="fl" horiz-adv-x="310" 
d="M375 703l-49 -39q-26 39 -71 39q-38 0 -60.5 -26t-22.5 -76v-145h114v-60h-114v-396h-69v396h-77v60h77v143q0 74 40.5 120t106.5 46q83 0 125 -62zM463 0h-70v750h70v-750z" />
    <glyph glyph-name=".notdef" horiz-adv-x="334" 
 />
    <glyph glyph-name=".null" 
 />
    <glyph glyph-name="nonmarkingreturn" horiz-adv-x="333" 
 />
    <glyph glyph-name="space" unicode=" " horiz-adv-x="300" 
 />
    <glyph glyph-name="exclam" unicode="!" horiz-adv-x="242" 
d="M154 200h-66l-5 500h76zM64 47q0 23 17 40t40 17t40 -17t17 -40t-17 -40t-40 -17t-40 17t-17 40z" />
    <glyph glyph-name="quotedbl" unicode="&#x22;" horiz-adv-x="230" 
d="M95 560h-60l-5 140h70zM195 560h-60l-5 140h70z" />
    <glyph glyph-name="numbersign" unicode="#" horiz-adv-x="590" 
d="M230 0h-70v235h-133v70h133v130h-133v70h133v195h70v-195h130v195h70v-195h137v-70h-137v-130h137v-70h-137v-235h-70v235h-130v-235zM230 435v-130h130v130h-130z" />
    <glyph glyph-name="dollar" unicode="$" horiz-adv-x="493" 
d="M211 706v74h70v-74q61 -14 91 -62l-58 -41q-29 45 -68 45q-34 0 -55.5 -23.5t-21.5 -58.5q0 -26 20 -54t50.5 -52t65.5 -54.5t65.5 -60.5t50.5 -71t20 -84q0 -75 -45.5 -129.5t-114.5 -66.5v-70h-70v69q-56 9 -100 47t-59 100l67 22q13 -51 47.5 -81t78.5 -30
q61 0 93.5 38.5t32.5 100.5q0 40 -28 79t-68 71.5t-79.5 65.5t-67.5 74.5t-28 85.5q0 52 31.5 90t79.5 50z" />
    <glyph glyph-name="percent" unicode="%" horiz-adv-x="704" 
d="M145 0h-85l480 700h85zM166 434q-56 0 -94.5 39t-38.5 94t38.5 94t94.5 39t94.5 -39t38.5 -94t-38.5 -94t-94.5 -39zM166 498q28 0 48.5 20t20.5 49t-20.5 49t-48.5 20t-48.5 -20t-20.5 -49t20.5 -49t48.5 -20zM526 0q-56 0 -94.5 39t-38.5 94t38.5 94t94.5 39t94.5 -39
t38.5 -94t-38.5 -94t-94.5 -39zM526 64q28 0 48.5 20t20.5 49t-20.5 49t-48.5 20t-48.5 -20t-20.5 -49t20.5 -49t48.5 -20z" />
    <glyph glyph-name="ampersand" unicode="&#x26;" horiz-adv-x="617" 
d="M577 402q-26 -143 -78 -238l106 -131l-50 -42l-93 114q-87 -115 -213 -115q-93 0 -160.5 60t-67.5 164q0 81 48.5 138t121.5 88l-2 3q-48 59 -48 132q0 57 34.5 96t99.5 39q60 0 90 -35.5t30 -86.5q0 -113 -103 -168l163 -202q41 93 52 184h70zM254 51q48 0 92 27.5
t77 75.5l-193 238q-140 -68 -140 -174q0 -77 43.5 -122t120.5 -45zM208 575q0 -50 48 -110q75 37 75 116q0 28 -16.5 47.5t-43.5 19.5q-29 0 -46 -20.5t-17 -52.5z" />
    <glyph glyph-name="quotesingle" unicode="'" horiz-adv-x="130" 
d="M95 560h-60l-5 140h70z" />
    <glyph glyph-name="parenleft" unicode="(" horiz-adv-x="255" 
d="M35 343q0 260 122 420l52 -40q-108 -144 -108 -380t108 -380l-52 -40q-122 160 -122 420z" />
    <glyph glyph-name="parenright" unicode=")" horiz-adv-x="255" 
d="M209 343q0 -260 -122 -420l-52 40q108 144 108 380t-108 380l52 40q122 -160 122 -420z" />
    <glyph glyph-name="asterisk" unicode="*" horiz-adv-x="353" 
d="M145 725h60l-2 -107l92 55l29 -52l-92 -51l92 -51l-29 -52l-92 55l2 -107h-60l2 107l-92 -55l-29 52l92 51l-92 51l29 52l92 -55z" />
    <glyph glyph-name="plus" unicode="+" horiz-adv-x="443" 
d="M40 350v60h151v152h60v-152h152v-60h-152v-151h-60v151h-151z" />
    <glyph glyph-name="comma" unicode="," horiz-adv-x="215" 
d="M82 -120l-28 39q24 14 38 31.5t16 28.5l2 11h-7q-23 0 -40 17t-17 41q0 23 17 39.5t40 16.5q49 0 63 -47.5t-11 -102.5t-73 -74z" />
    <glyph glyph-name="hyphen" unicode="-" horiz-adv-x="323" 
d="M40 250v60h243v-60h-243z" />
    <glyph glyph-name="period" unicode="." horiz-adv-x="242" 
d="M64 47q0 23 17 40t40 17t40 -17t17 -40t-17 -40t-40 -17t-40 17t-17 40z" />
    <glyph glyph-name="slash" unicode="/" horiz-adv-x="319" 
d="M-17 -100l280 900h70l-280 -900h-70z" />
    <glyph glyph-name="zero" unicode="0" horiz-adv-x="680" 
d="M40 350q0 154 80 257t220 103t220 -102.5t80 -257.5q0 -152 -80.5 -256t-219.5 -104q-140 0 -220 103.5t-80 256.5zM110 350q0 -126 59.5 -210t170.5 -84t170.5 84.5t59.5 209.5q0 126 -59 210t-171 84t-171 -84.5t-59 -209.5z" />
    <glyph glyph-name="one" unicode="1" horiz-adv-x="381" 
d="M330 0h-270v60h100v563l-81 -40l-27 54l126 63h52v-640h100v-60z" />
    <glyph glyph-name="two" unicode="2" horiz-adv-x="537" 
d="M477 0h-417v54q14 9 37 26t81.5 69.5t103.5 104t82 122.5t37 134q0 62 -37.5 96.5t-89.5 34.5q-51 0 -89 -34.5t-38 -95.5q0 -20 3.5 -37t6.5 -24l3 -6l-66 -19q-17 26 -17 86q0 91 58.5 143t138.5 52t138.5 -51.5t58.5 -144.5q0 -64 -30.5 -133t-80.5 -129t-91.5 -101
t-84.5 -77h293v-70z" />
    <glyph glyph-name="three" unicode="3" horiz-adv-x="513" 
d="M247 -10q-47 0 -85.5 13t-60.5 32t-37 38t-20 32l-5 13l57 30q1 -4 4 -10.5t15.5 -23t28 -29.5t43.5 -23.5t61 -10.5q71 0 111 49.5t40 115.5q0 62 -35 106.5t-99 44.5h-45v59q49 0 80 36t31 90q0 45 -25 69.5t-59 24.5q-32 0 -55.5 -21t-24.5 -59h-69q0 68 44 107
t104 39q63 0 108.5 -42t45.5 -118q0 -95 -77 -144q68 -18 106 -70t38 -120q0 -94 -58 -161t-162 -67z" />
    <glyph glyph-name="four" unicode="4" horiz-adv-x="512" 
d="M380 0h-70v180h-280v40l298 480h52v-460h100v-60h-100v-180zM115 240h195v309z" />
    <glyph glyph-name="five" unicode="5" horiz-adv-x="553" 
d="M428 630h-266v-193q50 39 122 39q117 0 177.5 -69t60.5 -167q0 -106 -68 -178t-191 -72q-47 0 -88 13t-65.5 32t-42.5 38t-25 32l-7 13l56 40q2 -4 6.5 -11t20.5 -25t34 -31.5t48.5 -24.5t63.5 -11q89 0 138 53.5t49 131.5q0 71 -46.5 122t-130.5 51q-35 0 -66.5 -13
t-43 -22.5t-18.5 -17.5v-1l-52 31v310h334v-70z" />
    <glyph glyph-name="six" unicode="6" horiz-adv-x="571" 
d="M299 402q-77 0 -120.5 -52.5t-43.5 -123.5q0 -72 43 -124t120 -52q73 0 115.5 54t42.5 126q0 71 -41 121.5t-116 50.5zM301 -10q-119 0 -183 80t-64 201q0 153 83.5 276t233.5 163l23 -66q-60 -18 -109 -51.5t-76.5 -68.5t-46 -67t-24.5 -53l-6 -20q60 84 183 84
q103 0 160.5 -69.5t57.5 -165.5q0 -99 -61 -171t-171 -72z" />
    <glyph glyph-name="seven" unicode="7" horiz-adv-x="486" 
d="M252 0h-70q0 100 18.5 203.5t48 188.5t53 138.5t47.5 99.5h-303v70h387v-54q-7 -12 -19.5 -34t-43.5 -91.5t-55 -141t-43.5 -176t-19.5 -203.5z" />
    <glyph glyph-name="eight" unicode="8" horiz-adv-x="523" 
d="M262 -10q-105 0 -164 64t-59 151q0 71 36 122.5t96 74.5q-75 48 -75 140q0 68 44.5 118t121.5 50t121.5 -50t44.5 -118q0 -92 -75 -140q60 -23 96 -74.5t36 -122.5q0 -87 -59 -151t-164 -64zM262 51q74 0 114.5 47t40.5 111t-40.5 110.5t-114.5 46.5t-114.5 -46.5
t-40.5 -110.5t40.5 -111t114.5 -47zM262 426q45 0 70 34t25 80q0 45 -25 78.5t-70 33.5t-70 -33.5t-25 -78.5q0 -46 25 -80t70 -34z" />
    <glyph glyph-name="nine" unicode="9" horiz-adv-x="578" 
d="M282 298q77 0 120.5 52.5t43.5 123.5q0 72 -43 124t-120 52q-73 0 -115.5 -54t-42.5 -126q0 -71 41 -121.5t116 -50.5zM280 710q119 0 183 -80t64 -201q0 -153 -83.5 -276t-233.5 -163l-23 66q60 18 109 51.5t76.5 68.5t46 67t24.5 53l6 20q-60 -84 -183 -84
q-103 0 -160.5 69.5t-57.5 165.5q0 99 61 171t171 72z" />
    <glyph glyph-name="colon" unicode=":" horiz-adv-x="242" 
d="M64 347q0 23 17 40t40 17t40 -17t17 -40t-17 -40t-40 -17t-40 17t-17 40zM64 47q0 23 17 40t40 17t40 -17t17 -40t-17 -40t-40 -17t-40 17t-17 40z" />
    <glyph glyph-name="semicolon" unicode=";" horiz-adv-x="248" 
d="M64 347q0 23 17 40t40 17t40 -17t17 -40t-17 -40t-40 -17t-40 17t-17 40zM103 -100l-26 35q22 13 35 29t14 26l2 10h-6q-21 0 -36.5 15.5t-15.5 37.5q0 20 15.5 35.5t36.5 15.5q45 0 57.5 -43.5t-10 -93.5t-66.5 -67z" />
    <glyph glyph-name="less" unicode="&#x3c;" horiz-adv-x="317" 
d="M281 225l-49 -49l-202 202l202 202l49 -49l-140 -140l-14 -13l14 -13z" />
    <glyph glyph-name="equal" unicode="=" horiz-adv-x="430" 
d="M370 270h-310v60h310v-60zM370 430h-310v60h310v-60z" />
    <glyph glyph-name="greater" unicode="&#x3e;" horiz-adv-x="317" 
d="M85 176l-49 49l140 140l13 13l-13 13l-140 140l49 49l202 -202z" />
    <glyph glyph-name="question" unicode="?" horiz-adv-x="494" 
d="M128 444l-66 -19q-17 26 -17 86q0 91 58.5 143t138.5 52q86 0 141.5 -46t55.5 -130q0 -53 -23.5 -94.5t-56.5 -66t-66 -44t-56.5 -40.5t-23.5 -44q0 -18 10 -27.5t24 -9.5t24 9.5t10 27.5h53q0 -41 -28 -63.5t-64 -22.5q-37 0 -63 22.5t-26 63.5q0 38 22 66.5t54 48
t64 40.5t54 55t22 79q0 55 -35 85.5t-92 30.5q-52 0 -89.5 -35.5t-37.5 -99.5q0 -20 3.5 -36.5t6.5 -23.5zM200 36q0 19 13.5 32t32.5 13t32.5 -13t13.5 -32t-13.5 -32.5t-32.5 -13.5t-32.5 13.5t-13.5 32.5z" />
    <glyph glyph-name="at" unicode="@" horiz-adv-x="770" 
d="M390 -10q-149 0 -253.5 105.5t-104.5 254.5t104.5 254.5t253.5 105.5q148 0 249 -105.5t101 -254.5q0 -97 -44.5 -149.5t-101.5 -52.5q-29 0 -53 15.5t-35 43.5q-50 -53 -126 -53q-84 0 -130.5 57.5t-46.5 135.5q0 79 47.5 137t131.5 58q68 0 116 -53v41h57v-277
q0 -29 13 -45t33 -16q33 0 60.5 41.5t27.5 116.5q0 130 -85.5 220t-213.5 90t-213.5 -90t-85.5 -220q0 -131 85.5 -220.5t213.5 -89.5q105 0 184 63l32 -41q-96 -72 -216 -72zM393 205q51 0 80 42.5t29 100.5t-28.5 100t-80.5 42q-61 0 -95 -42.5t-34 -100.5t34 -100t95 -42
z" />
    <glyph glyph-name="A" unicode="A" horiz-adv-x="549" 
d="M459 0l-69 223h-231l-68 -223h-76l226 700h67l226 -700h-75zM257 544l-80 -261h195l-80 261q-17 51 -17 66q0 -1 -3 -11.5t-7.5 -26.5t-7.5 -28z" />
    <glyph glyph-name="B" unicode="B" horiz-adv-x="570" 
d="M247 0h-147v700h161q80 0 126.5 -47t46.5 -126q0 -76 -63 -118q64 -24 101.5 -76.5t37.5 -120.5q0 -93 -66.5 -152.5t-196.5 -59.5zM283 365h-113v-301h112q72 0 115 43t43 105q0 63 -42.5 108t-114.5 45zM170 425h91q50 0 76.5 29t26.5 73q0 46 -26 77.5t-77 31.5h-91
v-211z" />
    <glyph glyph-name="C" unicode="C" horiz-adv-x="704" 
d="M660 97q-105 -107 -256 -107q-149 0 -254.5 105.5t-105.5 254.5t105.5 254.5t254.5 105.5t254 -105l-49 -50q-89 89 -205 89q-120 0 -205 -86.5t-85 -207.5t85 -207.5t205 -86.5q118 0 207 91z" />
    <glyph glyph-name="D" unicode="D" horiz-adv-x="692" 
d="M100 0v700h171q361 0 361 -340q0 -169 -91 -264.5t-240 -95.5h-201zM170 60h131q116 0 188 80.5t72 220.5q0 150 -74 214.5t-216 64.5h-101v-580z" />
    <glyph glyph-name="E" unicode="E" horiz-adv-x="544" 
d="M474 66v-66h-374v700h374v-66h-304v-236h243v-66h-243v-266h304z" />
    <glyph glyph-name="F" unicode="F" horiz-adv-x="510" 
d="M170 -1l-70 1v700h374v-66h-304v-236h243v-66h-243v-333z" />
    <glyph glyph-name="G" unicode="G" horiz-adv-x="740" 
d="M660 97q-105 -107 -256 -107q-149 0 -254.5 105.5t-105.5 254.5t105.5 254.5t254.5 105.5t254 -105l-49 -50q-89 89 -205 89q-120 0 -205 -86.5t-85 -207.5t85 -207.5t205 -86.5q113 0 186 64v189h-187v66h257v-278z" />
    <glyph glyph-name="H" unicode="H" horiz-adv-x="600" 
d="M520 0h-70v363h-300v-363h-70v700h70v-272h300v272h70v-700z" />
    <glyph glyph-name="I" unicode="I" horiz-adv-x="339" 
d="M289 0h-239v60h85v580h-85v60h239v-60h-84v-580h84v-60z" />
    <glyph glyph-name="J" unicode="J" horiz-adv-x="458" 
d="M294 700h70v-510q0 -91 -48 -145.5t-129 -54.5q-65 0 -111 37t-61 113l67 22q22 -107 106 -107q48 0 77 37.5t29 97.5v510z" />
    <glyph glyph-name="K" unicode="K" horiz-adv-x="562" 
d="M456 0l-190 356q-4 8 -8.5 17.5t-7.5 15.5l-2 6l-26 -37l-52 -70v-288h-70v700h70v-273q0 -7 -0.5 -17t-1 -16.5t-0.5 -7.5q3 9 22 33l211 281h76l-184 -247l239 -453h-76z" />
    <glyph glyph-name="L" unicode="L" horiz-adv-x="480" 
d="M450 70v-70h-350v700h70v-630h280z" />
    <glyph glyph-name="M" unicode="M" horiz-adv-x="888" 
d="M722 700l96 -700h-74l-65 549q-5 33 -5 45q-1 -2 -5.5 -17t-7.5 -26l-195 -551h-44l-196 551q-11 25 -14 43q0 -9 -4 -45l-64 -549h-74l96 700h74l193 -531l10 -35q6 26 10 35l195 531h74z" />
    <glyph glyph-name="N" unicode="N" horiz-adv-x="630" 
d="M530 700v-700h-70v190l-274 373q-10 11 -18 27v-6q1 -6 1.5 -14t0.5 -14v-556h-70v700h75l269 -370q4 -6 8.5 -13t7.5 -11l2 -5v5q-1 6 -1.5 14.5t-0.5 15.5v364h70z" />
    <glyph glyph-name="O" unicode="O" horiz-adv-x="808" 
d="M404 -10q-149 0 -254.5 105.5t-105.5 254.5t105.5 254.5t254.5 105.5q148 0 254 -106t106 -254q0 -149 -105.5 -254.5t-254.5 -105.5zM404 56q124 0 207 84.5t83 209.5q0 126 -82.5 210t-207.5 84t-207.5 -84.5t-82.5 -209.5q0 -126 83 -210t207 -84z" />
    <glyph glyph-name="P" unicode="P" horiz-adv-x="551" 
d="M170 0h-70v700h203q104 0 161 -59t57 -149q0 -91 -59 -149t-159 -58h-133v-285zM170 351h133q75 0 111.5 38.5t36.5 102.5q0 65 -37.5 103.5t-110.5 38.5h-133v-283z" />
    <glyph glyph-name="Q" unicode="Q" horiz-adv-x="808" 
d="M404 -10q-149 0 -254.5 105.5t-105.5 254.5t105.5 254.5t254.5 105.5q148 0 254 -106t106 -254q0 -131 -84 -231l87 -87l-42 -42l-87 86q-100 -86 -234 -86zM404 56q108 0 188 67l-93 93l42 42l92 -92q61 80 61 184q0 126 -82.5 210t-207.5 84t-207.5 -84.5t-82.5 -209.5
q0 -126 83 -210t207 -84z" />
    <glyph glyph-name="R" unicode="R" horiz-adv-x="592" 
d="M170 0h-70v700h203q104 0 161 -59t57 -149q0 -65 -32 -115.5t-89 -73.5l132 -303h-76l-125 286q-9 -1 -28 -1h-133v-285zM170 351h133q75 0 111.5 38.5t36.5 102.5q0 65 -37.5 103.5t-110.5 38.5h-133v-283z" />
    <glyph glyph-name="S" unicode="S" horiz-adv-x="473" 
d="M232 -10q-65 0 -119.5 39.5t-72.5 110.5l67 22q13 -51 47.5 -81t78.5 -30q61 0 93.5 38.5t32.5 100.5q0 40 -28 79t-67.5 71.5t-79.5 65.5t-68 74.5t-28 85.5q0 63 43 103.5t103 40.5q85 0 126 -66l-58 -41q-29 45 -68 45q-34 0 -55.5 -23.5t-21.5 -58.5q0 -26 20 -54
t50.5 -52t65.5 -54.5t65.5 -60.5t50.5 -71t20 -84q0 -85 -57.5 -142.5t-139.5 -57.5z" />
    <glyph glyph-name="T" unicode="T" horiz-adv-x="430" 
d="M250 0h-70v634h-160v66h390v-66h-160v-634z" />
    <glyph glyph-name="U" unicode="U" horiz-adv-x="626" 
d="M313 54q61 0 104.5 45.5t43.5 118.5v482h71v-457q0 -128 -62 -190.5t-157 -62.5t-157 62.5t-62 190.5v457h71v-482q0 -73 43.5 -118.5t104.5 -45.5z" />
    <glyph glyph-name="V" unicode="V" horiz-adv-x="539" 
d="M303 0h-67l-226 700h75l172 -560q2 -9 4.5 -18.5t4 -15.5t3 -11.5t1.5 -6.5q0 14 12 52l171 560h76z" />
    <glyph glyph-name="W" unicode="W" horiz-adv-x="850" 
d="M840 700l-256 -700h-67l-74 204q-18 49 -18 62q-17 -58 -18 -62l-74 -204h-67l-256 700h74l203 -557l16 -54q6 29 15 54l73 207l-130 350h74l72 -197l20 -70q7 34 20 70l71 197h71l-128 -350l77 -207q4 -11 8 -24t6 -20.5t2 -8.5q3 16 16 53l199 557h71z" />
    <glyph glyph-name="X" unicode="X" horiz-adv-x="529" 
d="M301 387l208 -387h-73l-157 291q-15 27 -15 31l-2 -5q-3 -5 -6 -12t-7 -14l-156 -291h-73l207 387l-167 313h74l115 -216l15 -31q4 11 15 31l116 216h74z" />
    <glyph glyph-name="Y" unicode="Y" horiz-adv-x="539" 
d="M304 0h-70v402l-224 298h85l155 -208l19 -27q8 12 20 28l154 207h86l-225 -299v-401z" />
    <glyph glyph-name="Z" unicode="Z" horiz-adv-x="580" 
d="M64 60l337 552l14 22h-335v66h420v-60l-337 -552l-14 -22h351v-66h-436v60z" />
    <glyph glyph-name="bracketleft" unicode="[" horiz-adv-x="200" 
d="M190 -40v-60h-140v900h140v-60h-70v-780h70z" />
    <glyph glyph-name="backslash" unicode="\" horiz-adv-x="317" 
d="M53 800l280 -900h-70l-280 900h70z" />
    <glyph glyph-name="bracketright" unicode="]" horiz-adv-x="200" 
d="M10 -100v60h70v780h-70v60h140v-900h-140z" />
    <glyph glyph-name="asciicircum" unicode="^" horiz-adv-x="466" 
d="M80 482l-49 49l169 169h65l170 -169l-49 -49l-140 140l-13 13l-13 -13z" />
    <glyph glyph-name="underscore" unicode="_" horiz-adv-x="531" 
d="M-1 -130v60h533v-60h-533z" />
    <glyph glyph-name="grave" unicode="`" horiz-adv-x="187" 
d="M-25 618l43 47l145 -135l-43 -47z" />
    <glyph glyph-name="a" unicode="a" horiz-adv-x="516" 
d="M486 0h-9q-38 0 -62.5 21.5t-29.5 57.5q-65 -89 -185 -89q-44 0 -78 14.5t-52 38.5t-26.5 52.5t0 58.5t26.5 55.5t52.5 43.5t79.5 23q98 9 183 -16v31q0 54 -34.5 86t-92.5 32q-35 0 -69.5 -16.5t-55.5 -46.5l-53 41q2 3 6.5 9t20.5 21t35 26t50.5 20.5t65.5 9.5
q89 0 140 -49.5t51 -132.5v-198q0 -28 28 -28h9v-65zM209 51q44 0 78.5 15.5t54.5 39.5t31 50t12 51q-92 21 -176 12q-59 -7 -86.5 -48.5t-4 -80.5t90.5 -39z" />
    <glyph glyph-name="b" unicode="b" horiz-adv-x="538" 
d="M136 0h-66v750h66v-324q0 -24 -3 -46q50 86 150 86q89 0 148 -63.5t59 -172.5q0 -110 -59 -175t-148 -65q-98 0 -149 84q2 -36 2 -74zM277 49q59 0 102.5 51t43.5 130q0 78 -43.5 127.5t-102.5 49.5q-67 0 -104 -48t-37 -131t37 -131t104 -48z" />
    <glyph glyph-name="c" unicode="c" horiz-adv-x="497" 
d="M412 117l47 -40q-66 -87 -178 -87q-96 0 -163.5 70t-67.5 169t67.5 169t163.5 70q100 0 168 -75l-43 -44q-52 59 -125 59t-118 -50.5t-45 -128.5t46 -128.5t117 -50.5q86 0 131 67z" />
    <glyph glyph-name="d" unicode="d" horiz-adv-x="530" 
d="M460 750v-750h-66q0 54 2 72q-50 -82 -149 -82q-89 0 -148 65t-59 175q0 109 59 172.5t148 63.5q100 0 149 -82q-2 28 -2 42v324h66zM253 49q67 0 104 48t37 131t-37 131t-104 48q-59 0 -102.5 -49.5t-43.5 -127.5q0 -79 43.5 -130t102.5 -51z" />
    <glyph glyph-name="e" unicode="e" horiz-adv-x="511" 
d="M475 244v-35h-371q6 -74 53 -115.5t113 -41.5q101 0 153 78l49 -41q-36 -47 -82.5 -73t-119.5 -26q-104 0 -169 69t-65 170t63 170t163 69q101 0 157 -65t56 -159zM262 408q-61 0 -104.5 -38.5t-52.5 -107.5h300q-8 68 -44.5 107t-98.5 39z" />
    <glyph glyph-name="f" unicode="f" horiz-adv-x="310" 
d="M375 703l-49 -39q-26 39 -71 39q-38 0 -60.5 -26t-22.5 -76v-145h114v-60h-114v-396h-69v396h-77v60h77v143q0 74 40.5 120t106.5 46q83 0 125 -62z" />
    <glyph glyph-name="g" unicode="g" horiz-adv-x="537" 
d="M64 263q0 84 60 143.5t146 59.5q64 0 117 -37l71 75l49 -49l-74 -70q41 -54 41 -122q0 -85 -59.5 -144t-144.5 -59q-66 0 -115 34q-23 -22 -30.5 -53.5t6 -55.5t45.5 -24q20 0 82.5 13t98.5 13q66 0 106.5 -37.5t40.5 -93.5q0 -70 -60.5 -117t-167.5 -47q-73 0 -128 23.5
t-79.5 59t-22 79.5t35.5 84q-32 39 -20 96t57 89q-55 58 -55 140zM132 263q0 -63 40 -105.5t98 -42.5q59 0 97 42.5t38 105.5q0 64 -38 106t-97 42q-60 0 -99 -42t-39 -106zM176 -99q-30 0 -55 10q-20 -22 -16.5 -49t20 -50t57 -39t94.5 -16q80 0 120 29t40 70
q0 29 -20 50.5t-59 21.5q-25 0 -84 -13.5t-97 -13.5z" />
    <glyph glyph-name="h" unicode="h" horiz-adv-x="550" 
d="M136 261v-261h-66v750h66v-324q0 -15 -2 -43q58 83 157 83q88 0 138.5 -53.5t50.5 -156.5v-256h-67v256q0 74 -34.5 112.5t-93.5 38.5q-64 0 -105.5 -42.5t-43.5 -103.5z" />
    <glyph glyph-name="i" unicode="i" horiz-adv-x="210" 
d="M140 0h-70v456h70v-456zM48 573q0 23 17 40t40 17t40 -17t17 -40t-17 -40t-40 -17t-40 17t-17 40z" />
    <glyph glyph-name="j" unicode="j" horiz-adv-x="253" 
d="M34 -309q-118 0 -156 125l68 20q16 -75 87 -75q33 0 56.5 26.5t23.5 67.5v601h70v-599q0 -72 -43.5 -119t-105.5 -47zM91 573q0 23 17 40t40 17t40 -17t17 -40t-17 -40t-40 -17t-40 17t-17 40z" />
    <glyph glyph-name="k" unicode="k" horiz-adv-x="472" 
d="M462 0h-76l-182 244l-64 -74v-170h-70v750h70v-486l173 194h76l-139 -161z" />
    <glyph glyph-name="l" unicode="l" horiz-adv-x="210" 
d="M140 0h-70v750h70v-750z" />
    <glyph glyph-name="m" unicode="m" horiz-adv-x="774" 
d="M704 297v-297h-67v298q0 49 -23.5 79t-73.5 30q-51 0 -85 -39t-35 -104v-264h-67v298q0 49 -23.5 79t-73.5 30q-51 0 -85 -39t-35 -104v-264h-66v456h66v-30q0 -11 -2 -33q50 73 136 73q101 0 135 -86q45 86 145 86q68 0 111 -42.5t43 -126.5z" />
    <glyph glyph-name="n" unicode="n" horiz-adv-x="550" 
d="M480 256v-256h-67v256q0 74 -34.5 112.5t-93.5 38.5q-64 0 -105.5 -42.5t-43.5 -103.5v-261h-66v456h66v-30q0 -15 -2 -43q58 83 157 83q88 0 138.5 -53.5t50.5 -156.5z" />
    <glyph glyph-name="o" unicode="o" horiz-adv-x="542" 
d="M271 -10q-96 0 -163.5 70t-67.5 169t67.5 169t163.5 70t163.5 -70t67.5 -169t-67.5 -169t-163.5 -70zM271 50q73 0 118 50t45 129t-45 129t-118 50t-118 -50.5t-45 -128.5t46 -128.5t117 -50.5z" />
    <glyph glyph-name="p" unicode="p" horiz-adv-x="536" 
d="M136 -250h-66v706h66v-30q0 -14 -2 -38q56 78 149 78q89 0 148 -63.5t59 -172.5q0 -110 -59 -175t-148 -65q-94 0 -149 77q2 -34 2 -67v-250zM136 228q0 -83 37 -131t104 -48q59 0 102.5 51t43.5 130q0 78 -43.5 127.5t-102.5 49.5q-67 0 -104 -48t-37 -131z" />
    <glyph glyph-name="q" unicode="q" horiz-adv-x="536" 
d="M466 -250h-66v250q0 50 1 67q-54 -77 -148 -77q-89 0 -148 65t-59 175q0 109 59 172.5t148 63.5q94 0 148 -78q-1 12 -1 38v30h66v-706zM400 228q0 83 -37 131t-104 48q-59 0 -102.5 -49.5t-43.5 -127.5q0 -79 43.5 -130t102.5 -51q67 0 104 48t37 131z" />
    <glyph glyph-name="r" unicode="r" horiz-adv-x="290" 
d="M136 261v-261h-66v456h66v-30q0 -14 -1 -21q44 62 124 62v-62q-55 -4 -88 -44t-35 -100z" />
    <glyph glyph-name="s" unicode="s" horiz-adv-x="408" 
d="M313 400l-56 -28q-18 36 -66 36q-24 0 -41.5 -15.5t-17.5 -43.5q0 -25 23.5 -43t69.5 -40q60 -28 95 -60.5t35 -82.5q0 -57 -40 -95t-113 -38q-54 0 -100.5 26.5t-71.5 74.5l60 28q18 -33 48 -52t64 -19q40 0 62 20t22 50q0 48 -80 84q-33 15 -51.5 24.5t-43 27t-36 40.5
t-11.5 52q0 56 38 88t90 32q39 0 72.5 -17t48.5 -49z" />
    <glyph glyph-name="t" unicode="t" horiz-adv-x="290" 
d="M180 0h-70v396h-80v60h80v194h70v-194h80v-60h-80v-396z" />
    <glyph glyph-name="u" unicode="u" horiz-adv-x="550" 
d="M414 201v255h66v-456h-66v30q0 28 2 42q-59 -82 -157 -82q-88 0 -138.5 53.5t-50.5 156.5v256h67v-256q0 -74 34.5 -112.5t93.5 -38.5q66 0 107.5 44.5t41.5 107.5z" />
    <glyph glyph-name="v" unicode="v" horiz-adv-x="480" 
d="M268 0h-67l-189 456h75l147 -357l158 357h76z" />
    <glyph glyph-name="w" unicode="w" horiz-adv-x="762" 
d="M249 0h-67l-169 456h75l127 -357l138 357h55l127 -357l138 357h76l-180 -456h-67l-123 334z" />
    <glyph glyph-name="x" unicode="x" horiz-adv-x="498" 
d="M108 0h-83l182 234l-172 222h83l131 -168l131 168h83l-173 -222l183 -234h-83l-141 181z" />
    <glyph glyph-name="y" unicode="y" horiz-adv-x="502" 
d="M145 -296h-75l136 307l-184 445h75l147 -357l158 357h76l-29 -68l-173 -388z" />
    <glyph glyph-name="z" unicode="z" horiz-adv-x="510" 
d="M44 64l316 328h-300v64h390v-64l-317 -328h317v-64h-406v64z" />
    <glyph glyph-name="braceleft" unicode="{" horiz-adv-x="234" 
d="M20 321v64q70 0 70 69v248q0 42 30 72.5t72 30.5h9v-65h-9q-13 0 -25.5 -12.5t-12.5 -25.5v-248q0 -76 -62 -101q62 -26 62 -101v-248q0 -13 12.5 -25.5t25.5 -12.5h9v-65h-9q-42 0 -72 30.5t-30 72.5v248q0 69 -70 69z" />
    <glyph glyph-name="bar" unicode="|" horiz-adv-x="230" 
d="M80 -56v806h70v-806h-70z" />
    <glyph glyph-name="braceright" unicode="}" horiz-adv-x="234" 
d="M214 385v-64q-70 0 -70 -69v-248q0 -42 -30 -72.5t-72 -30.5h-9v65h9q13 0 25.5 12.5t12.5 25.5v248q0 75 62 101q-62 24 -62 101v248q0 13 -12.5 25.5t-25.5 12.5h-9v65h9q42 0 72 -30.5t30 -72.5v-248q0 -69 70 -69z" />
    <glyph glyph-name="asciitilde" unicode="~" horiz-adv-x="496" 
d="M74 351l-45 35q39 59 122 59q32 0 89 -23.5t81 -23.5t46 10t32 28l50 -33q-45 -68 -129 -68q-33 0 -88 23.5t-85 23.5q-43 0 -73 -31z" />
    <glyph glyph-name="uni00A0" unicode="&#xa0;" horiz-adv-x="300" 
 />
    <glyph glyph-name="exclamdown" unicode="&#xa1;" horiz-adv-x="242" 
d="M88 500h66l5 -500h-76zM64 653q0 23 17 40t40 17t40 -17t17 -40t-17 -40t-40 -17t-40 17t-17 40z" />
    <glyph glyph-name="cent" unicode="&#xa2;" horiz-adv-x="450" 
d="M382 247l47 -40q-56 -74 -148 -85v-122h-70v123q-82 15 -136.5 81.5t-54.5 154.5t54.5 154.5t136.5 80.5v106h70v-104q82 -12 138 -73l-43 -44q-52 59 -125 59t-118 -50.5t-45 -128.5t46 -128.5t117 -50.5q86 0 131 67z" />
    <glyph glyph-name="sterling" unicode="&#xa3;" horiz-adv-x="521" 
d="M479 60v-60h-433v60h42q28 65 28 144q0 37 -5 90h-75v60h69q-7 77 -7 153q0 96 56 149.5t133 53.5q80 0 132 -48t52 -141q0 -23 -4.5 -44.5t-8.5 -31.5l-4 -10l-66 19q13 22 13 67q0 56 -32.5 90t-83.5 34t-84 -36t-33 -102q0 -39 7 -153h164v-60h-159q2 -46 2 -67
q0 -100 -29 -167h326z" />
    <glyph glyph-name="currency" unicode="&#xa4;" horiz-adv-x="512" 
d="M256 130q-65 0 -112 34l-65 -66l-43 43l67 66q-33 49 -33 113q0 61 31 110l-66 66l43 43l64 -65q47 36 114 36t114 -36l64 65l43 -43l-66 -66q31 -51 31 -110q0 -64 -33 -113l67 -66l-43 -43l-65 66q-47 -34 -112 -34zM256 444q-52 0 -81.5 -37t-29.5 -87t29.5 -87
t81.5 -37t81.5 37t29.5 87t-29.5 87t-81.5 37z" />
    <glyph glyph-name="yen" unicode="&#xa5;" horiz-adv-x="489" 
d="M89 374h121v28l-224 298h85l174 -233l174 233h86l-225 -299v-27h119v-60h-119v-60h119v-60h-119v-194h-70v194h-121v60h121v60h-121v60z" />
    <glyph glyph-name="brokenbar" unicode="&#xa6;" horiz-adv-x="190" 
d="M130 -60h-70v390h70v-390zM130 390h-70v370h70v-370z" />
    <glyph glyph-name="section" unicode="&#xa7;" horiz-adv-x="496" 
d="M242 -10q-65 0 -119.5 39.5t-72.5 110.5l67 22q13 -51 47.5 -81t78.5 -30q47 0 77 22.5t30 62.5q0 38 -29.5 64t-71 41.5t-83.5 31.5t-71.5 46t-29.5 73q0 30 20 60t44 41q-24 30 -24 73q0 63 43.5 103.5t107.5 40.5q85 0 126 -66l-58 -41q-26 40 -69 40q-34 0 -56 -18.5
t-22 -48.5q0 -31 28 -55t68 -41.5t80 -36.5t68 -50.5t28 -72.5q0 -75 -48 -105q19 -33 19 -70q0 -67 -47 -111t-131 -44zM127 406q0 -34 33 -55t94.5 -43t91.5 -40q10 -6 20 -14q13 21 13 48q0 40 -33.5 65.5t-94.5 51t-87 43.5q-16 -8 -26.5 -24t-10.5 -32z" />
    <glyph glyph-name="dieresis" unicode="&#xa8;" horiz-adv-x="372" 
d="M45 604q0 21 14.5 36t35.5 15t36 -15t15 -36t-15 -35.5t-36 -14.5t-35.5 14.5t-14.5 35.5zM230 604q0 21 14.5 36t35.5 15t36 -15t15 -36t-15 -35.5t-36 -14.5t-35.5 14.5t-14.5 35.5z" />
    <glyph glyph-name="copyright" unicode="&#xa9;" horiz-adv-x="792" 
d="M509 260l46 -41q-57 -76 -154 -76q-82 0 -140.5 60.5t-58.5 146.5t58.5 146.5t140.5 60.5q85 0 145 -65l-45 -45q-42 48 -100 48q-55 0 -93 -42.5t-38 -102.5t38.5 -102.5t92.5 -42.5q65 0 108 55zM36 350q0 149 105.5 254.5t254.5 105.5q148 0 254 -106t106 -254
q0 -149 -105.5 -254.5t-254.5 -105.5t-254.5 105.5t-105.5 254.5zM106 350q0 -126 83 -210t207 -84t207 84.5t83 209.5q0 126 -82.5 210t-207.5 84t-207.5 -84.5t-82.5 -209.5z" />
    <glyph glyph-name="ordfeminine" unicode="&#xaa;" horiz-adv-x="418" 
d="M110 600l-52 41q56 69 150 69q63 0 107 -37.5t44 -114.5v-135q0 -28 28 -28h9v-65h-9q-41 0 -64.5 19.5t-25.5 50.5q-36 -80 -137 -80q-81 0 -114 60q-30 53 0 109q36 69 133 75q9 1 18 1q58 0 98 -26v19q0 40 -22.5 64t-64.5 24q-61 0 -98 -46zM169 381q56 0 90 32.5
t36 80.5l-17 5q-18 5 -33.5 7t-37.5 2q-72 0 -97 -45q-20 -34 4 -61q19 -21 55 -21z" />
    <glyph glyph-name="guillemotleft" unicode="&#xab;" horiz-adv-x="517" 
d="M281 225l-49 -49l-202 202l202 202l49 -49l-140 -140l-14 -13l14 -13zM481 225l-49 -49l-202 202l202 202l49 -49l-140 -140l-14 -13l14 -13z" />
    <glyph glyph-name="logicalnot" unicode="&#xac;" horiz-adv-x="443" 
d="M40 350v60h363v-181h-60v121h-303z" />
    <glyph glyph-name="registered" unicode="&#xae;" horiz-adv-x="527" 
d="M26 467q0 101 71 172t172 71t172 -71t71 -172t-71 -172t-172 -71t-172 71t-71 172zM81 467q0 -82 54 -136t134 -54t134 55t54 135q0 81 -53.5 135.5t-134.5 54.5t-134.5 -54.5t-53.5 -135.5zM239 358h-45v222h82q32 0 52 -19.5t20 -52.5q0 -48 -36 -66l43 -84h-50l-37 76
h-29v-76zM268 476q36 0 36 32q0 31 -36 31h-29v-63h29z" />
    <glyph glyph-name="degree" unicode="&#xb0;" horiz-adv-x="246" 
d="M20 607q0 43 30 73t73 30t73 -30t30 -73t-30 -73t-73 -30t-73 30t-30 73zM73 607q0 -20 15 -35t35 -15t34.5 15t14.5 35t-14.5 34.5t-34.5 14.5t-35 -14.5t-15 -34.5z" />
    <glyph glyph-name="plusminus" unicode="&#xb1;" horiz-adv-x="443" 
d="M40 396v60h151v152h60v-152h152v-60h-152v-151h-60v151h-151zM40 146v60h363v-60h-363z" />
    <glyph glyph-name="twosuperior" unicode="&#xb2;" horiz-adv-x="331" 
d="M40 340v54q7 3 19.5 9t43.5 26.5t55 42.5t43.5 56t19.5 69t-26 49.5t-52 0.5t-26 -49q0 -7 1.5 -13.5t3.5 -10.5l2 -3l-66 -19q-11 13 -11 46q0 41 25 70t61 36.5t72 1.5t61 -35.5t25 -73.5q0 -59 -41.5 -113t-111.5 -83h153v-61h-251z" />
    <glyph glyph-name="threesuperior" unicode="&#xb3;" horiz-adv-x="333" 
d="M146 506v60q26 0 38.5 14.5t12.5 35.5t-15.5 30.5t-31.5 1t-17 -31.5h-69q0 46 30.5 70t72.5 24q46 0 71 -25.5t25 -61.5q0 -64 -55 -85q41 -5 65 -32.5t24 -62.5q0 -45 -35.5 -79t-98.5 -34q-29 0 -53 8t-37.5 19.5t-23 23t-13.5 19.5l-3 8l57 30q18 -47 74 -47
q31 0 49 17t18 40t-16.5 40.5t-43.5 17.5h-25z" />
    <glyph glyph-name="acute" unicode="&#xb4;" horiz-adv-x="283" 
d="M190 665l43 -47l-145 -135l-43 47z" />
    <glyph glyph-name="mu" unicode="&#xb5;" horiz-adv-x="530" 
d="M414 201v255h66v-456h-66v30q0 28 2 42q-59 -82 -157 -82q-77 0 -123 39v-324h-66v751h67v-256q0 -74 34.5 -112.5t93.5 -38.5q66 0 107.5 44.5t41.5 107.5z" />
    <glyph glyph-name="mu" unicode="&#x3bc;" horiz-adv-x="530" 
d="M414 201v255h66v-456h-66v30q0 28 2 42q-59 -82 -157 -82q-77 0 -123 39v-324h-66v751h67v-256q0 -74 34.5 -112.5t93.5 -38.5q66 0 107.5 44.5t41.5 107.5z" />
    <glyph glyph-name="paragraph" unicode="&#xb6;" horiz-adv-x="551" 
d="M350 700v-700h-70v355h-81q-71 0 -122 50.5t-51 121.5t51 122t122 51h151zM500 700v-700h-70v700h70z" />
    <glyph glyph-name="periodcentered" unicode="&#xb7;" horiz-adv-x="238" 
d="M62 379q0 23 17 40t40 17t40 -17t17 -40t-17 -40t-40 -17t-40 17t-17 40z" />
    <glyph glyph-name="cedilla" unicode="&#xb8;" horiz-adv-x="424" 
d="M146 29h46v-98q4 6 17 12t28 6q36 0 55.5 -25t19.5 -61q0 -39 -25.5 -67t-70.5 -28q-17 0 -32 5.5t-25 13t-17.5 15.5t-10.5 14l-3 5l44 24q14 -27 44 -27q21 0 33.5 13.5t12.5 31.5q0 16 -11 28.5t-31 12.5q-24 0 -37 -24l-37 15v134z" />
    <glyph glyph-name="onesuperior" unicode="&#xb9;" horiz-adv-x="290" 
d="M250 340h-210v60h70v223l-52 -25l-27 54l97 48h52v-300h70v-60z" />
    <glyph glyph-name="ordmasculine" unicode="&#xba;" horiz-adv-x="452" 
d="M226 330q-88 0 -137 56.5t-49 133.5t49 133.5t137 56.5q87 0 136.5 -56.5t49.5 -133.5t-49 -133.5t-137 -56.5zM226 644q-52 0 -81.5 -37t-29.5 -87t29.5 -87t81.5 -37t81.5 37t29.5 87t-29.5 87t-81.5 37z" />
    <glyph glyph-name="guillemotright" unicode="&#xbb;" horiz-adv-x="517" 
d="M85 176l-49 49l140 140l13 13l-13 13l-140 140l49 49l202 -202zM285 176l-49 49l140 140l13 13l-1 1q-2 1 -3.5 2.5l-4 4t-4.5 5.5l-140 140l49 49l202 -202z" />
    <glyph glyph-name="onequarter" unicode="&#xbc;" horiz-adv-x="725" 
d="M250 340h-210v60h70v223l-52 -25l-27 54l97 48h52v-300h70v-60zM690 80h-60v-80h-70v80h-160v40l178 240h52v-220h60v-60zM491 140h69v98zM126 0l374 700h80l-374 -700h-80z" />
    <glyph glyph-name="onehalf" unicode="&#xbd;" horiz-adv-x="290" 
d="M250 340h-210v60h70v223l-52 -25l-27 54l97 48h52v-300h70v-60zM119 0l374 700h80l-374 -700h-80zM400 0v54q7 3 19.5 9t43.5 26.5t55 42.5t43.5 56t19.5 69t-26 49.5t-52 0.5t-26 -49q0 -7 1.5 -13.5t3.5 -10.5l2 -3l-66 -19q-11 13 -11 46q0 41 25 70t61 36.5t72 1.5
t61 -35.5t25 -73.5q0 -59 -41.5 -113t-111.5 -83h153v-61h-251z" />
    <glyph glyph-name="threequarters" unicode="&#xbe;" horiz-adv-x="333" 
d="M650 80h-60v-80h-70v80h-160v40l178 240h52v-220h60v-60zM451 140h69v98zM146 506v60q26 0 38.5 14.5t12.5 35.5t-15.5 30.5t-31.5 1t-17 -31.5h-69q0 46 30.5 70t72.5 24q46 0 71 -25.5t25 -61.5q0 -64 -55 -85q41 -5 65 -32.5t24 -62.5q0 -45 -35.5 -79t-98.5 -34
q-29 0 -53 8t-37.5 19.5t-23 23t-13.5 19.5l-3 8l57 30q18 -47 74 -47q31 0 49 17t18 40t-16.5 40.5t-43.5 17.5h-25zM129 0l374 700h80l-374 -700h-80z" />
    <glyph glyph-name="questiondown" unicode="&#xbf;" horiz-adv-x="494" 
d="M356 252l66 19q17 -26 17 -86q0 -91 -58.5 -143t-138.5 -52q-86 0 -141.5 46t-55.5 130q0 53 23.5 94.5t56.5 66t66 44t56.5 40.5t23.5 44q0 18 -10 27.5t-24 9.5t-24 -9.5t-10 -27.5h-53q0 41 28 63.5t64 22.5q37 0 63 -22.5t26 -63.5q0 -38 -22 -66.5t-54 -48
t-64 -40.5t-54 -55t-22 -79q0 -55 35 -85.5t92 -30.5q52 0 89.5 35.5t37.5 99.5q0 20 -3.5 36.5t-6.5 23.5zM284 660q0 -19 -13.5 -32t-32.5 -13t-32.5 13t-13.5 32t13.5 32.5t32.5 13.5t32.5 -13.5t13.5 -32.5z" />
    <glyph glyph-name="Agrave" unicode="&#xc0;" horiz-adv-x="539" 
d="M454 0l-69 223h-231l-68 -223h-76l226 700h67l226 -700h-75zM252 544l-80 -261h195l-80 261q-17 51 -17 66q0 -1 -3 -11.5t-7.5 -26.5t-7.5 -28zM102 862l43 47l145 -135l-43 -47z" />
    <glyph glyph-name="Aacute" unicode="&#xc1;" horiz-adv-x="539" 
d="M454 0l-69 223h-231l-68 -223h-76l226 700h67l226 -700h-75zM252 544l-80 -261h195l-80 261q-17 51 -17 66q0 -1 -3 -11.5t-7.5 -26.5t-7.5 -28zM385 909l43 -47l-145 -135l-43 47z" />
    <glyph glyph-name="Acircumflex" unicode="&#xc2;" horiz-adv-x="539" 
d="M454 0l-69 223h-231l-68 -223h-76l226 700h67l226 -700h-75zM252 544l-80 -261h195l-80 261q-17 51 -17 66q0 -1 -3 -11.5t-7.5 -26.5t-7.5 -28zM194 769l-49 49l91 92h65l93 -92l-49 -49l-63 73l-13 14q-5 -4 -13 -14z" />
    <glyph glyph-name="Atilde" unicode="&#xc3;" horiz-adv-x="539" 
d="M454 0l-69 223h-231l-68 -223h-76l226 700h67l226 -700h-75zM252 544l-80 -261h195l-80 261q-17 51 -17 66q0 -1 -3 -11.5t-7.5 -26.5t-7.5 -28zM150 763l-43 35q4 6 11 14.5t32.5 23t53.5 14.5q25 0 68.5 -21t60.5 -21q18 0 32.5 8.5t19.5 17.5l5 8l47 -30
q-1 -3 -3.5 -7t-12 -14.5t-20.5 -19t-29 -15t-38 -6.5q-28 0 -70.5 20.5t-59.5 20.5q-16 0 -29.5 -7t-18.5 -14z" />
    <glyph glyph-name="Adieresis" unicode="&#xc4;" horiz-adv-x="539" 
d="M454 0l-69 223h-231l-68 -223h-76l226 700h67l226 -700h-75zM252 544l-80 -261h195l-80 261q-17 51 -17 66q0 -1 -3 -11.5t-7.5 -26.5t-7.5 -28zM129 848q0 21 14.5 36t35.5 15t36 -15t15 -36t-15 -35.5t-36 -14.5t-35.5 14.5t-14.5 35.5zM314 848q0 21 14.5 36t35.5 15
t36 -15t15 -36t-15 -35.5t-36 -14.5t-35.5 14.5t-14.5 35.5z" />
    <glyph glyph-name="Aring" unicode="&#xc5;" horiz-adv-x="549" 
d="M172 751q0 43 30 73t73 30t73 -30t30 -73q0 -63 -57 -92l213 -659h-75l-69 223h-231l-68 -223h-76l213 659q-26 13 -41 37.5t-15 54.5zM257 544l-80 -261h195l-80 261q-17 51 -17 66q0 -1 -3 -11.5t-7.5 -26.5t-7.5 -28zM225 751q0 -20 15 -35t35 -15t34.5 15t14.5 35
t-14.5 34.5t-34.5 14.5t-35 -14.5t-15 -34.5z" />
    <glyph glyph-name="AE" unicode="&#xc6;" horiz-adv-x="790" 
d="M63 0h-76l346 700h397v-64h-304v-251h213v-60h-213v-261h304v-64h-374v225h-183zM338 561l-135 -276h153v333z" />
    <glyph glyph-name="Ccedilla" unicode="&#xc7;" horiz-adv-x="676" 
d="M646 97q-105 -107 -256 -107q-21 0 -31 1v-60q4 6 17 12t28 6q36 0 55.5 -25t19.5 -61q0 -39 -25.5 -67t-70.5 -28q-17 0 -32 5.5t-25 13t-17.5 15.5t-10.5 14l-3 5l44 24q14 -27 44 -27q21 0 33.5 13.5t12.5 31.5q0 16 -11 28.5t-31 12.5q-24 0 -37 -24l-37 15v104
q-123 27 -203 124.5t-80 226.5q0 149 105.5 254.5t254.5 105.5t254 -105l-49 -50q-89 89 -205 89q-120 0 -205 -86.5t-85 -207.5t85 -207.5t205 -86.5q118 0 207 91z" />
    <glyph glyph-name="Egrave" unicode="&#xc8;" horiz-adv-x="514" 
d="M454 66v-66h-374v700h374v-66h-304v-236h243v-66h-243v-266h304zM164 862l43 47l145 -135l-43 -47z" />
    <glyph glyph-name="Eacute" unicode="&#xc9;" horiz-adv-x="514" 
d="M454 66v-66h-374v700h374v-66h-304v-236h243v-66h-243v-266h304zM302 909l43 -47l-145 -135l-43 47z" />
    <glyph glyph-name="Ecircumflex" unicode="&#xca;" horiz-adv-x="514" 
d="M454 66v-66h-374v700h374v-66h-304v-236h243v-66h-243v-266h304zM181 763l-49 49l91 92h65l93 -92l-49 -49l-63 73l-13 14q-5 -4 -13 -14z" />
    <glyph glyph-name="Edieresis" unicode="&#xcb;" horiz-adv-x="514" 
d="M454 66v-66h-374v700h374v-66h-304v-236h243v-66h-243v-266h304zM114 848q0 21 14.5 36t35.5 15t36 -15t15 -36t-15 -35.5t-36 -14.5t-35.5 14.5t-14.5 35.5zM299 848q0 21 14.5 36t35.5 15t36 -15t15 -36t-15 -35.5t-36 -14.5t-35.5 14.5t-14.5 35.5z" />
    <glyph glyph-name="Igrave" unicode="&#xcc;" horiz-adv-x="330" 
d="M284 0h-239v60h85v580h-85v60h239v-60h-84v-580h84v-60zM12 862l43 47l145 -135l-43 -47z" />
    <glyph glyph-name="Iacute" unicode="&#xcd;" horiz-adv-x="330" 
d="M284 0h-239v60h85v580h-85v60h239v-60h-84v-580h84v-60zM270 909l43 -47l-145 -135l-43 47z" />
    <glyph glyph-name="Icircumflex" unicode="&#xce;" horiz-adv-x="330" 
d="M284 0h-239v60h85v580h-85v60h239v-60h-84v-580h84v-60zM89 763l-49 49l91 92h65l93 -92l-49 -49l-63 73l-13 14q-5 -4 -13 -14z" />
    <glyph glyph-name="Idieresis" unicode="&#xcf;" horiz-adv-x="330" 
d="M284 0h-239v60h85v580h-85v60h239v-60h-84v-580h84v-60zM22 848q0 21 14.5 36t35.5 15t36 -15t15 -36t-15 -35.5t-36 -14.5t-35.5 14.5t-14.5 35.5zM207 848q0 21 14.5 36t35.5 15t36 -15t15 -36t-15 -35.5t-36 -14.5t-35.5 14.5t-14.5 35.5z" />
    <glyph glyph-name="Eth" unicode="&#xd0;" horiz-adv-x="656" 
d="M10 326v60h70v314h171q361 0 361 -340q0 -169 -91 -264.5t-240 -95.5h-201v326h-70zM150 60h131q116 0 188 80.5t72 220.5q0 150 -74 214.5t-216 64.5h-101v-254h147v-60h-147v-266z" />
    <glyph glyph-name="Ntilde" unicode="&#xd1;" horiz-adv-x="590" 
d="M510 700v-700h-70v190l-274 373q-10 11 -18 27v-6q1 -6 1.5 -14t0.5 -14v-556h-70v700h75l269 -370q4 -6 8.5 -13t7.5 -11l2 -5v5q-1 6 -1.5 14.5t-0.5 15.5v364h70zM172 763l-43 35q4 6 11 14.5t32.5 23t53.5 14.5q25 0 68.5 -21t60.5 -21q18 0 32.5 8.5t19.5 17.5l5 8
l47 -30q-1 -3 -3.5 -7t-12 -14.5t-20.5 -19t-29 -15t-38 -6.5q-28 0 -70.5 20.5t-59.5 20.5q-16 0 -29.5 -7t-18.5 -14z" />
    <glyph glyph-name="Ograve" unicode="&#xd2;" horiz-adv-x="780" 
d="M390 -10q-149 0 -254.5 105.5t-105.5 254.5t105.5 254.5t254.5 105.5q148 0 254 -106t106 -254q0 -149 -105.5 -254.5t-254.5 -105.5zM390 56q124 0 207 84.5t83 209.5q0 126 -82.5 210t-207.5 84t-207.5 -84.5t-82.5 -209.5q0 -126 83 -210t207 -84zM297 862l43 47
l145 -135l-43 -47z" />
    <glyph glyph-name="Oacute" unicode="&#xd3;" horiz-adv-x="780" 
d="M390 -10q-149 0 -254.5 105.5t-105.5 254.5t105.5 254.5t254.5 105.5q148 0 254 -106t106 -254q0 -149 -105.5 -254.5t-254.5 -105.5zM390 56q124 0 207 84.5t83 209.5q0 126 -82.5 210t-207.5 84t-207.5 -84.5t-82.5 -209.5q0 -126 83 -210t207 -84zM435 909l43 -47
l-145 -135l-43 47z" />
    <glyph glyph-name="Ocircumflex" unicode="&#xd4;" horiz-adv-x="780" 
d="M390 -10q-149 0 -254.5 105.5t-105.5 254.5t105.5 254.5t254.5 105.5q148 0 254 -106t106 -254q0 -149 -105.5 -254.5t-254.5 -105.5zM390 56q124 0 207 84.5t83 209.5q0 126 -82.5 210t-207.5 84t-207.5 -84.5t-82.5 -209.5q0 -126 83 -210t207 -84zM314 763l-49 49
l91 92h65l93 -92l-49 -49l-63 73l-13 14q-5 -4 -13 -14z" />
    <glyph glyph-name="Otilde" unicode="&#xd5;" horiz-adv-x="780" 
d="M390 -10q-149 0 -254.5 105.5t-105.5 254.5t105.5 254.5t254.5 105.5q148 0 254 -106t106 -254q0 -149 -105.5 -254.5t-254.5 -105.5zM390 56q124 0 207 84.5t83 209.5q0 126 -82.5 210t-207.5 84t-207.5 -84.5t-82.5 -209.5q0 -126 83 -210t207 -84zM267 763l-43 35
q4 6 11 14.5t32.5 23t53.5 14.5q25 0 68.5 -21t60.5 -21q18 0 32.5 8.5t19.5 17.5l5 8l47 -30q-1 -3 -3.5 -7t-12 -14.5t-20.5 -19t-29 -15t-38 -6.5q-28 0 -70.5 20.5t-59.5 20.5q-16 0 -29.5 -7t-19.5 -14z" />
    <glyph glyph-name="Odieresis" unicode="&#xd6;" horiz-adv-x="780" 
d="M390 -10q-149 0 -254.5 105.5t-105.5 254.5t105.5 254.5t254.5 105.5q148 0 254 -106t106 -254q0 -149 -105.5 -254.5t-254.5 -105.5zM390 56q124 0 207 84.5t83 209.5q0 126 -82.5 210t-207.5 84t-207.5 -84.5t-82.5 -209.5q0 -126 83 -210t207 -84zM247 848
q0 21 14.5 36t35.5 15t36 -15t15 -36t-15 -35.5t-36 -14.5t-35.5 14.5t-14.5 35.5zM432 848q0 21 14.5 36t35.5 15t36 -15t15 -36t-15 -35.5t-36 -14.5t-35.5 14.5t-14.5 35.5z" />
    <glyph glyph-name="multiply" unicode="&#xd7;" horiz-adv-x="414" 
d="M80 211l-42 42l127 127l-128 127l43 43l127 -128l127 128l43 -43l-128 -127l127 -127l-42 -42l-127 127z" />
    <glyph glyph-name="Oslash" unicode="&#xd8;" horiz-adv-x="780" 
d="M390 -10q-149 0 -254.5 105.5t-105.5 254.5t105.5 254.5t254.5 105.5q148 0 254 -106t106 -254q0 -149 -105.5 -254.5t-254.5 -105.5zM390 56q124 0 207 84.5t83 209.5q0 76 -32.5 139t-89.5 103l-276 -517q52 -19 108 -19zM100 350q0 -76 32 -139t88 -103l276 517
q-52 19 -106 19q-125 0 -207.5 -84.5t-82.5 -209.5z" />
    <glyph glyph-name="Ugrave" unicode="&#xd9;" horiz-adv-x="603" 
d="M304 54q-61 0 -104.5 45.5t-43.5 118.5v482h-71v-457q0 -128 62 -190.5t157 -62.5t157 62.5t62 190.5v457h-71v-482q0 -73 -43.5 -118.5t-104.5 -45.5zM209 862l43 47l145 -135l-43 -47z" />
    <glyph glyph-name="Uacute" unicode="&#xda;" horiz-adv-x="603" 
d="M304 54q-61 0 -104.5 45.5t-43.5 118.5v482h-71v-457q0 -128 62 -190.5t157 -62.5t157 62.5t62 190.5v457h-71v-482q0 -73 -43.5 -118.5t-104.5 -45.5zM347 909l43 -47l-145 -135l-43 47z" />
    <glyph glyph-name="Ucircumflex" unicode="&#xdb;" horiz-adv-x="603" 
d="M304 54q-61 0 -104.5 45.5t-43.5 118.5v482h-71v-457q0 -128 62 -190.5t157 -62.5t157 62.5t62 190.5v457h-71v-482q0 -73 -43.5 -118.5t-104.5 -45.5zM226 763l-49 49l91 92h65l93 -92l-49 -49l-63 73l-13 14q-5 -4 -13 -14z" />
    <glyph glyph-name="Udieresis" unicode="&#xdc;" horiz-adv-x="603" 
d="M304 54q-61 0 -104.5 45.5t-43.5 118.5v482h-71v-457q0 -128 62 -190.5t157 -62.5t157 62.5t62 190.5v457h-71v-482q0 -73 -43.5 -118.5t-104.5 -45.5zM158 848q0 21 14.5 36t35.5 15t36 -15t15 -36t-15 -35.5t-36 -14.5t-35.5 14.5t-14.5 35.5zM343 848q0 21 14.5 36
t35.5 15t36 -15t15 -36t-15 -35.5t-36 -14.5t-35.5 14.5t-14.5 35.5z" />
    <glyph glyph-name="Yacute" unicode="&#xdd;" horiz-adv-x="489" 
d="M280 0h-70v402l-224 298h85l155 -208l19 -27q8 12 20 28l154 207h86l-225 -299v-401zM290 909l43 -47l-145 -135l-43 47z" />
    <glyph glyph-name="Thorn" unicode="&#xde;" horiz-adv-x="534" 
d="M150 0h-70v700h70v-130h161q71 0 122 -51t51 -122t-51 -121.5t-122 -50.5h-161v-225zM311 504h-161v-213h161q42 0 72.5 32t30.5 74q0 43 -30.5 75t-72.5 32z" />
    <glyph glyph-name="germandbls" unicode="&#xdf;" horiz-adv-x="438" 
d="M105 0h-70v555q0 74 44 114.5t105 40.5q58 0 101.5 -37t43.5 -100q0 -95 -56 -157q-25 -28 17 -50l-1 1q27 -14 42 -23.5t36 -29.5t31 -47.5t10 -64.5q0 -90 -63.5 -148.5t-160.5 -58.5v60q67 0 110.5 41.5t43.5 105.5q0 33 -15 56.5t-36 37t-42 25t-36 28.5t-15 40
q0 27 16 51t32.5 56t16.5 77q0 36 -22.5 56.5t-52.5 20.5q-33 0 -56 -24.5t-23 -70.5v-555z" />
    <glyph glyph-name="agrave" unicode="&#xe0;" horiz-adv-x="526" 
d="M486 0h-9q-38 0 -62.5 21.5t-29.5 57.5q-65 -89 -185 -89q-44 0 -78 14.5t-52 38.5t-26.5 52.5t0 58.5t26.5 55.5t52.5 43.5t79.5 23q98 9 183 -16v31q0 54 -34.5 86t-92.5 32q-35 0 -69.5 -16.5t-55.5 -46.5l-53 41q2 3 6.5 9t20.5 21t35 26t50.5 20.5t65.5 9.5
q89 0 140 -49.5t51 -132.5v-198q0 -28 28 -28h9v-65zM209 51q44 0 78.5 15.5t54.5 39.5t31 50t12 51q-92 21 -176 12q-59 -7 -86.5 -48.5t-4 -80.5t90.5 -39zM170 618l43 47l145 -135l-43 -47z" />
    <glyph glyph-name="aacute" unicode="&#xe1;" horiz-adv-x="526" 
d="M486 0h-9q-38 0 -62.5 21.5t-29.5 57.5q-65 -89 -185 -89q-44 0 -78 14.5t-52 38.5t-26.5 52.5t0 58.5t26.5 55.5t52.5 43.5t79.5 23q98 9 183 -16v31q0 54 -34.5 86t-92.5 32q-35 0 -69.5 -16.5t-55.5 -46.5l-53 41q2 3 6.5 9t20.5 21t35 26t50.5 20.5t65.5 9.5
q89 0 140 -49.5t51 -132.5v-198q0 -28 28 -28h9v-65zM209 51q44 0 78.5 15.5t54.5 39.5t31 50t12 51q-92 21 -176 12q-59 -7 -86.5 -48.5t-4 -80.5t90.5 -39zM308 665l43 -47l-145 -135l-43 47z" />
    <glyph glyph-name="acircumflex" unicode="&#xe2;" horiz-adv-x="526" 
d="M486 0h-9q-38 0 -62.5 21.5t-29.5 57.5q-65 -89 -185 -89q-44 0 -78 14.5t-52 38.5t-26.5 52.5t0 58.5t26.5 55.5t52.5 43.5t79.5 23q98 9 183 -16v31q0 54 -34.5 86t-92.5 32q-35 0 -69.5 -16.5t-55.5 -46.5l-53 41q2 3 6.5 9t20.5 21t35 26t50.5 20.5t65.5 9.5
q89 0 140 -49.5t51 -132.5v-198q0 -28 28 -28h9v-65zM209 51q44 0 78.5 15.5t54.5 39.5t31 50t12 51q-92 21 -176 12q-59 -7 -86.5 -48.5t-4 -80.5t90.5 -39zM187 519l-49 49l91 92h65l93 -92l-49 -49l-63 73l-13 14q-5 -4 -13 -14z" />
    <glyph glyph-name="atilde" unicode="&#xe3;" horiz-adv-x="526" 
d="M486 0h-9q-38 0 -62.5 21.5t-29.5 57.5q-65 -89 -185 -89q-44 0 -78 14.5t-52 38.5t-26.5 52.5t0 58.5t26.5 55.5t52.5 43.5t79.5 23q98 9 183 -16v31q0 54 -34.5 86t-92.5 32q-35 0 -69.5 -16.5t-55.5 -46.5l-53 41q2 3 6.5 9t20.5 21t35 26t50.5 20.5t65.5 9.5
q89 0 140 -49.5t51 -132.5v-198q0 -28 28 -28h9v-65zM209 51q44 0 78.5 15.5t54.5 39.5t31 50t12 51q-92 21 -176 12q-59 -7 -86.5 -48.5t-4 -80.5t90.5 -39zM140 519l-43 35q4 6 11 14.5t32.5 23t53.5 14.5q25 0 68.5 -21t60.5 -21q18 0 32.5 8.5t19.5 17.5l5 8l47 -30
q-1 -3 -3.5 -7t-12 -14.5t-20.5 -19t-29 -15t-38 -6.5q-28 0 -70.5 20.5t-59.5 20.5q-16 0 -29.5 -7t-18.5 -14z" />
    <glyph glyph-name="adieresis" unicode="&#xe4;" horiz-adv-x="526" 
d="M486 0h-9q-38 0 -62.5 21.5t-29.5 57.5q-65 -89 -185 -89q-44 0 -78 14.5t-52 38.5t-26.5 52.5t0 58.5t26.5 55.5t52.5 43.5t79.5 23q98 9 183 -16v31q0 54 -34.5 86t-92.5 32q-35 0 -69.5 -16.5t-55.5 -46.5l-53 41q2 3 6.5 9t20.5 21t35 26t50.5 20.5t65.5 9.5
q89 0 140 -49.5t51 -132.5v-198q0 -28 28 -28h9v-65zM209 51q44 0 78.5 15.5t54.5 39.5t31 50t12 51q-92 21 -176 12q-59 -7 -86.5 -48.5t-4 -80.5t90.5 -39zM120 604q0 21 14.5 36t35.5 15t36 -15t15 -36t-15 -35.5t-36 -14.5t-35.5 14.5t-14.5 35.5zM305 604q0 21 14.5 36
t35.5 15t36 -15t15 -36t-15 -35.5t-36 -14.5t-35.5 14.5t-14.5 35.5z" />
    <glyph glyph-name="aring" unicode="&#xe5;" horiz-adv-x="516" 
d="M486 0h-9q-38 0 -62.5 21.5t-29.5 57.5q-65 -89 -185 -89q-44 0 -78 14.5t-52 38.5t-26.5 52.5t0 58.5t26.5 55.5t52.5 43.5t79.5 23q98 9 183 -16v31q0 54 -34.5 86t-92.5 32q-35 0 -69.5 -16.5t-55.5 -46.5l-53 41q2 3 6.5 9t20.5 21t35 26t50.5 20.5t65.5 9.5
q89 0 140 -49.5t51 -132.5v-198q0 -28 28 -28h9v-65zM209 51q44 0 78.5 15.5t54.5 39.5t31 50t12 51q-92 21 -176 12q-59 -7 -86.5 -48.5t-4 -80.5t90.5 -39zM210 611q0 -20 15 -35t35 -15t34.5 15t14.5 35t-14.5 34.5t-34.5 14.5t-35 -14.5t-15 -34.5zM157 611q0 43 30 73
t73 30t73 -30t30 -73t-30 -73t-73 -30t-73 30t-30 73z" />
    <glyph glyph-name="ae" unicode="&#xe6;" horiz-adv-x="877" 
d="M620 -10q-78 0 -129.5 40t-71.5 108q-24 -67 -78.5 -107.5t-140.5 -40.5q-44 0 -78 14.5t-52 38.5t-26.5 52.5t0 58.5t26.5 55.5t52.5 43.5t79.5 23q98 9 183 -16v31q0 54 -34.5 86t-92.5 32q-35 0 -69.5 -16.5t-55.5 -46.5l-53 41q2 3 6.5 9t20.5 21t35 26t50.5 20.5
t65.5 9.5q70 0 113 -33t57 -92q52 120 184 120q101 0 157 -65t56 -159v-35h-371q4 -73 50 -116t116 -43q102 0 155 79l47 -40q-36 -47 -82.5 -73t-119.5 -26zM209 51q44 0 78.5 15.5t54.5 39.5t31 50t12 51q-92 21 -176 12q-59 -7 -86.5 -48.5t-4 -80.5t90.5 -39zM754 262
q0 67 -38.5 106.5t-103.5 39.5q-64 0 -105 -40t-51 -106h298z" />
    <glyph glyph-name="ccedilla" unicode="&#xe7;" horiz-adv-x="497" 
d="M412 117l47 -40q-66 -87 -178 -87q-10 0 -28 2v-61q4 6 17 12t28 6q36 0 55.5 -25t19.5 -61q0 -39 -25.5 -67t-70.5 -28q-17 0 -32 5.5t-25 13t-17.5 15.5t-10.5 14l-3 5l44 24q14 -27 44 -27q21 0 33.5 13.5t12.5 31.5q0 16 -11 28.5t-31 12.5q-24 0 -37 -24l-37 15v107
q-70 24 -113.5 86.5t-43.5 140.5q0 99 67.5 169t163.5 70q100 0 168 -75l-43 -44q-52 59 -125 59t-118 -50.5t-45 -128.5t46 -128.5t117 -50.5q86 0 131 67z" />
    <glyph glyph-name="egrave" unicode="&#xe8;" horiz-adv-x="539" 
d="M485 209v35q0 94 -56 159t-157 65q-100 0 -163 -69t-63 -170t65 -170t169 -69q73 0 119.5 26t82.5 73l-49 41q-52 -78 -153 -78q-66 0 -113 41.5t-53 115.5h371zM272 408q62 0 98.5 -39t44.5 -107h-300q9 69 52.5 107.5t104.5 38.5zM177 618l43 47l145 -135l-43 -47z" />
    <glyph glyph-name="eacute" unicode="&#xe9;" horiz-adv-x="539" 
d="M485 209v35q0 94 -56 159t-157 65q-100 0 -163 -69t-63 -170t65 -170t169 -69q73 0 119.5 26t82.5 73l-49 41q-52 -78 -153 -78q-66 0 -113 41.5t-53 115.5h371zM272 408q62 0 98.5 -39t44.5 -107h-300q9 69 52.5 107.5t104.5 38.5zM315 665l43 -47l-145 -135l-43 47z
" />
    <glyph glyph-name="ecircumflex" unicode="&#xea;" horiz-adv-x="539" 
d="M485 209v35q0 94 -56 159t-157 65q-100 0 -163 -69t-63 -170t65 -170t169 -69q73 0 119.5 26t82.5 73l-49 41q-52 -78 -153 -78q-66 0 -113 41.5t-53 115.5h371zM272 408q62 0 98.5 -39t44.5 -107h-300q9 69 52.5 107.5t104.5 38.5zM194 519l-49 49l91 92h65l93 -92
l-49 -49l-63 73l-13 14q-5 -4 -13 -14z" />
    <glyph glyph-name="edieresis" unicode="&#xeb;" horiz-adv-x="539" 
d="M485 209v35q0 94 -56 159t-157 65q-100 0 -163 -69t-63 -170t65 -170t169 -69q73 0 119.5 26t82.5 73l-49 41q-52 -78 -153 -78q-66 0 -113 41.5t-53 115.5h371zM272 408q62 0 98.5 -39t44.5 -107h-300q9 69 52.5 107.5t104.5 38.5zM126 604q0 21 14.5 36t35.5 15t36 -15
t15 -36t-15 -35.5t-36 -14.5t-35.5 14.5t-14.5 35.5zM311 604q0 21 14.5 36t35.5 15t36 -15t15 -36t-15 -35.5t-36 -14.5t-35.5 14.5t-14.5 35.5z" />
    <glyph glyph-name="igrave" unicode="&#xec;" horiz-adv-x="190" 
d="M130 0h-70v456h70v-456zM-58 618l43 47l145 -135l-43 -47z" />
    <glyph glyph-name="iacute" unicode="&#xed;" horiz-adv-x="190" 
d="M130 0h-70v456h70v-456zM201 665l43 -47l-145 -135l-43 47z" />
    <glyph glyph-name="icircumflex" unicode="&#xee;" horiz-adv-x="190" 
d="M130 0h-70v456h70v-456zM20 519l-49 49l91 92h65l93 -92l-49 -49l-63 73l-13 14q-5 -4 -13 -14z" />
    <glyph glyph-name="idieresis" unicode="&#xef;" horiz-adv-x="190" 
d="M130 0h-70v456h70v-456zM-48 604q0 21 14.5 36t35.5 15t36 -15t15 -36t-15 -35.5t-36 -14.5t-35.5 14.5t-14.5 35.5zM137 604q0 21 14.5 36t35.5 15t36 -15t15 -36t-15 -35.5t-36 -14.5t-35.5 14.5t-14.5 35.5z" />
    <glyph glyph-name="eth" unicode="&#xf0;" horiz-adv-x="557" 
d="M255 552l-52 30l32 58q-36 19 -88 34l23 66q57 -16 99 -40l28 49l53 -30l-30 -52q89 -65 138 -169t49 -227q0 -102 -52 -183t-151 -95q-16 -3 -34 -3q-96 1 -163 70.5t-67 168.5t67.5 169t163.5 70q100 0 166 -90q-46 146 -151 228zM108 229q0 -78 46 -128.5t117 -50.5
q73 0 118 50t45 129t-45 129t-118 50t-118 -50.5t-45 -128.5z" />
    <glyph glyph-name="ntilde" unicode="&#xf1;" horiz-adv-x="550" 
d="M480 256v-256h-67v256q0 74 -34.5 112.5t-93.5 38.5q-64 0 -105.5 -42.5t-43.5 -103.5v-261h-66v456h66v-30q0 -15 -2 -43q58 83 157 83q88 0 138.5 -53.5t50.5 -156.5zM152 539l-43 35q4 6 11 14.5t32.5 23t53.5 14.5q25 0 68.5 -21t60.5 -21q18 0 32.5 8.5t19.5 17.5
l5 8l47 -30q-1 -3 -3.5 -7t-12 -14.5t-20.5 -19t-29 -15t-38 -6.5q-28 0 -70.5 20.5t-59.5 20.5q-16 0 -29.5 -7t-18.5 -14z" />
    <glyph glyph-name="ograve" unicode="&#xf2;" horiz-adv-x="562" 
d="M281 -10q-96 0 -163.5 70t-67.5 169t67.5 169t163.5 70t163.5 -70t67.5 -169t-67.5 -169t-163.5 -70zM281 50q73 0 118 50t45 129t-45 129t-118 50t-118 -50.5t-45 -128.5t46 -128.5t117 -50.5zM188 618l43 47l145 -135l-43 -47z" />
    <glyph glyph-name="oacute" unicode="&#xf3;" horiz-adv-x="562" 
d="M281 -10q-96 0 -163.5 70t-67.5 169t67.5 169t163.5 70t163.5 -70t67.5 -169t-67.5 -169t-163.5 -70zM281 50q73 0 118 50t45 129t-45 129t-118 50t-118 -50.5t-45 -128.5t46 -128.5t117 -50.5zM326 665l43 -47l-145 -135l-43 47z" />
    <glyph glyph-name="ocircumflex" unicode="&#xf4;" horiz-adv-x="562" 
d="M281 -10q-96 0 -163.5 70t-67.5 169t67.5 169t163.5 70t163.5 -70t67.5 -169t-67.5 -169t-163.5 -70zM281 50q73 0 118 50t45 129t-45 129t-118 50t-118 -50.5t-45 -128.5t46 -128.5t117 -50.5zM205 519l-49 49l91 92h65l93 -92l-49 -49l-63 73l-13 14q-5 -4 -13 -14z
" />
    <glyph glyph-name="otilde" unicode="&#xf5;" horiz-adv-x="562" 
d="M281 -10q-96 0 -163.5 70t-67.5 169t67.5 169t163.5 70t163.5 -70t67.5 -169t-67.5 -169t-163.5 -70zM281 50q73 0 118 50t45 129t-45 129t-118 50t-118 -50.5t-45 -128.5t46 -128.5t117 -50.5zM158 539l-43 35q4 6 11 14.5t32.5 23t53.5 14.5q25 0 68.5 -21t60.5 -21
q18 0 32.5 8.5t19.5 17.5l5 8l47 -30q-1 -3 -3.5 -7t-12 -14.5t-20.5 -19t-29 -15t-38 -6.5q-28 0 -70.5 20.5t-59.5 20.5q-16 0 -29.5 -7t-18.5 -14z" />
    <glyph glyph-name="odieresis" unicode="&#xf6;" horiz-adv-x="562" 
d="M281 -10q-96 0 -163.5 70t-67.5 169t67.5 169t163.5 70t163.5 -70t67.5 -169t-67.5 -169t-163.5 -70zM281 50q73 0 118 50t45 129t-45 129t-118 50t-118 -50.5t-45 -128.5t46 -128.5t117 -50.5zM138 604q0 21 14.5 36t35.5 15t36 -15t15 -36t-15 -35.5t-36 -14.5
t-35.5 14.5t-14.5 35.5zM323 604q0 21 14.5 36t35.5 15t36 -15t15 -36t-15 -35.5t-36 -14.5t-35.5 14.5t-14.5 35.5z" />
    <glyph glyph-name="divide" unicode="&#xf7;" horiz-adv-x="443" 
d="M164 531q0 23 17 40t40 17t40 -17t17 -40t-17 -40t-40 -17t-40 17t-17 40zM164 227q0 23 17 40t40 17t40 -17t17 -40t-17 -40t-40 -17t-40 17t-17 40zM40 350v60h363v-60h-363z" />
    <glyph glyph-name="oslash" unicode="&#xf8;" horiz-adv-x="562" 
d="M281 -10q-96 0 -163.5 70t-67.5 169t67.5 169t163.5 70t163.5 -70t67.5 -169t-67.5 -169t-163.5 -70zM281 50q73 0 118 50t45 129q0 86 -53 136l-179 -301q33 -14 69 -14zM118 229q0 -78 46 -129l176 297q-28 11 -59 11q-73 0 -118 -50.5t-45 -128.5z" />
    <glyph glyph-name="ugrave" unicode="&#xf9;" horiz-adv-x="550" 
d="M414 456v-255q0 -63 -41.5 -107.5t-107.5 -44.5q-59 0 -93.5 38.5t-34.5 112.5v256h-67v-256q0 -103 50.5 -156.5t138.5 -53.5q98 0 157 82q-2 -14 -2 -42v-30h66v456h-66zM182 618l43 47l145 -135l-43 -47z" />
    <glyph glyph-name="uacute" unicode="&#xfa;" horiz-adv-x="550" 
d="M414 456v-255q0 -63 -41.5 -107.5t-107.5 -44.5q-59 0 -93.5 38.5t-34.5 112.5v256h-67v-256q0 -103 50.5 -156.5t138.5 -53.5q98 0 157 82q-2 -14 -2 -42v-30h66v456h-66zM320 665l43 -47l-145 -135l-43 47z" />
    <glyph glyph-name="ucircumflex" unicode="&#xfb;" horiz-adv-x="550" 
d="M414 456v-255q0 -63 -41.5 -107.5t-107.5 -44.5q-59 0 -93.5 38.5t-34.5 112.5v256h-67v-256q0 -103 50.5 -156.5t138.5 -53.5q98 0 157 82q-2 -14 -2 -42v-30h66v456h-66zM199 519l-49 49l91 92h65l93 -92l-49 -49l-63 73l-13 14q-5 -4 -13 -14z" />
    <glyph glyph-name="udieresis" unicode="&#xfc;" horiz-adv-x="550" 
d="M414 456v-255q0 -63 -41.5 -107.5t-107.5 -44.5q-59 0 -93.5 38.5t-34.5 112.5v256h-67v-256q0 -103 50.5 -156.5t138.5 -53.5q98 0 157 82q-2 -14 -2 -42v-30h66v456h-66zM132 604q0 21 14.5 36t35.5 15t36 -15t15 -36t-15 -35.5t-36 -14.5t-35.5 14.5t-14.5 35.5z
M317 604q0 21 14.5 36t35.5 15t36 -15t15 -36t-15 -35.5t-36 -14.5t-35.5 14.5t-14.5 35.5z" />
    <glyph glyph-name="yacute" unicode="&#xfd;" horiz-adv-x="502" 
d="M145 -296h-75l136 307l-184 445h75l147 -357l158 357h76l-29 -68l-173 -388zM296 665l43 -47l-145 -135l-43 47z" />
    <glyph glyph-name="thorn" unicode="&#xfe;" horiz-adv-x="536" 
d="M136 -250h-66v1000h66v-324q0 -14 -2 -38q56 78 149 78q89 0 148 -63.5t59 -172.5q0 -110 -59 -175t-148 -65q-94 0 -149 77q2 -34 2 -67v-250zM136 228q0 -83 37 -131t104 -48q59 0 102.5 51t43.5 130q0 78 -43.5 127.5t-102.5 49.5q-67 0 -104 -48t-37 -131z" />
    <glyph glyph-name="ydieresis" unicode="&#xff;" horiz-adv-x="502" 
d="M145 -296h-75l136 307l-184 445h75l147 -357l158 357h76l-29 -68l-173 -388zM108 604q0 21 14.5 36t35.5 15t36 -15t15 -36t-15 -35.5t-36 -14.5t-35.5 14.5t-14.5 35.5zM293 604q0 21 14.5 36t35.5 15t36 -15t15 -36t-15 -35.5t-36 -14.5t-35.5 14.5t-14.5 35.5z" />
    <glyph glyph-name="dotlessi" unicode="&#x131;" horiz-adv-x="170" 
d="M120 0h-70v456h70v-456z" />
    <glyph glyph-name="Lslash" unicode="&#x141;" horiz-adv-x="450" 
d="M430 70v-70h-350v292l-48 -14l-18 62l66 19v341h70v-320l179 53l18 -62l-197 -59v-242h280z" />
    <glyph glyph-name="lslash" unicode="&#x142;" horiz-adv-x="190" 
d="M2 298l-18 62l76 22v368h70v-347l57 17l18 -62l-75 -22v-336h-70v315z" />
    <glyph glyph-name="OE" unicode="&#x152;" horiz-adv-x="824" 
d="M764 66v-66h-374q-150 0 -255 101t-105 249t105 249t255 101h374v-66h-304v-236h243v-66h-243v-266h304zM390 66v568q-126 0 -208 -80t-82 -204q0 -125 82.5 -204.5t207.5 -79.5z" />
    <glyph glyph-name="oe" unicode="&#x153;" horiz-adv-x="922" 
d="M671 -10q-78 0 -130.5 40t-73.5 108q-22 -67 -75 -107.5t-124 -40.5q-96 0 -162 70t-66 169t66 169t162 70q70 0 123 -40.5t76 -107.5q20 68 70 108t123 40q101 0 157 -65t56 -159v-35h-371q4 -73 50 -116t116 -43q102 0 155 79l47 -40q-37 -48 -81.5 -73.5t-117.5 -25.5
zM271 50q73 0 118 50t45 129t-45 129t-118 50t-118 -50.5t-45 -128.5t46 -128.5t117 -50.5zM802 262q0 67 -38.5 106.5t-103.5 39.5q-64 0 -105 -40t-51 -106h298z" />
    <glyph glyph-name="Scaron" unicode="&#x160;" horiz-adv-x="493" 
d="M244 -10q-65 0 -119.5 39.5t-72.5 110.5l67 22q13 -51 47.5 -81t78.5 -30q61 0 93.5 38.5t32.5 100.5q0 40 -28 79t-68 71.5t-79.5 65.5t-67.5 74.5t-28 85.5q0 63 43 103.5t103 40.5q85 0 126 -66l-58 -41q-29 45 -68 45q-34 0 -55.5 -23.5t-21.5 -58.5q0 -26 20 -54
t50.5 -52t65.5 -54.5t65.5 -60.5t50.5 -71t20 -84q0 -85 -57.5 -142.5t-139.5 -57.5zM122 865l49 49l62 -73l13 -14q5 4 13 14l63 73l49 -49l-93 -92h-65z" />
    <glyph glyph-name="scaron" unicode="&#x161;" horiz-adv-x="388" 
d="M303 400l-56 -28q-18 36 -66 36q-24 0 -41.5 -15.5t-17.5 -43.5q0 -25 23.5 -43t69.5 -40q60 -28 95 -60.5t35 -82.5q0 -57 -40 -95t-113 -38q-54 0 -100.5 26.5t-71.5 74.5l60 28q18 -33 48 -52t64 -19q40 0 62 20t22 50q0 48 -80 84q-33 15 -51.5 24.5t-43 27t-36 40.5
t-11.5 52q0 56 38 88t90 32q39 0 72.5 -17t48.5 -49zM69 621l49 49l62 -73l13 -14q5 4 13 14l63 73l49 -49l-93 -92h-65z" />
    <glyph glyph-name="Ydieresis" unicode="&#x178;" horiz-adv-x="489" 
d="M280 0h-70v402l-224 298h85l155 -208l19 -27q8 12 20 28l154 207h86l-225 -299v-401zM101 848q0 21 14.5 36t35.5 15t36 -15t15 -36t-15 -35.5t-36 -14.5t-35.5 14.5t-14.5 35.5zM286 848q0 21 14.5 36t35.5 15t36 -15t15 -36t-15 -35.5t-36 -14.5t-35.5 14.5t-14.5 35.5
z" />
    <glyph glyph-name="Zcaron" unicode="&#x17d;" horiz-adv-x="580" 
d="M64 60l337 552l14 22h-335v66h420v-60l-337 -552l-14 -22h351v-66h-436v60zM165 865l49 49l62 -73l13 -14q5 4 13 14l63 73l49 -49l-93 -92h-65z" />
    <glyph glyph-name="zcaron" unicode="&#x17e;" horiz-adv-x="490" 
d="M34 64l316 328h-300v64h390v-64l-317 -328h317v-64h-406v64zM120 621l49 49l62 -73l13 -14q5 4 13 14l63 73l49 -49l-93 -92h-65z" />
    <glyph glyph-name="florin" unicode="&#x192;" horiz-adv-x="331" 
d="M292 456l-7 -60h-114l-53 -430q-9 -71 -48.5 -119.5t-98.5 -48.5q-8 0 -22 2l9 70q4 -1 12 -1q32 0 53 26t26 69l53 432h-77l7 60h77l18 143q9 73 55 119.5t107 46.5q58 0 95.5 -33.5t50.5 -91.5l-68 -19q-10 44 -29 64t-51 20q-35 0 -60 -28.5t-31 -75.5l-18 -145h114z
" />
    <glyph glyph-name="circumflex" unicode="&#x2c6;" horiz-adv-x="294" 
d="M70 519l-49 49l91 92h65l93 -92l-49 -49l-63 73l-13 14q-5 -4 -13 -14z" />
    <glyph glyph-name="caron" unicode="&#x2c7;" horiz-adv-x="293" 
d="M21 621l49 49l62 -73l13 -14q5 4 13 14l63 73l49 -49l-93 -92h-65z" />
    <glyph glyph-name="ring" unicode="&#x2da;" horiz-adv-x="239" 
d="M70 751q0 -20 15 -35t35 -15t34.5 15t14.5 35t-14.5 34.5t-34.5 14.5t-35 -14.5t-15 -34.5zM17 751q0 43 30 73t73 30t73 -30t30 -73t-30 -73t-73 -30t-73 30t-30 73z" />
    <glyph glyph-name="tilde" unicode="&#x2dc;" horiz-adv-x="476" 
d="M90 519l-43 35q4 6 11 14.5t32.5 23t53.5 14.5q25 0 68.5 -21t60.5 -21q18 0 32.5 8.5t19.5 17.5l5 8l47 -30q-1 -3 -3.5 -7t-12 -14.5t-20.5 -19t-29 -15t-38 -6.5q-28 0 -70.5 20.5t-59.5 20.5q-16 0 -29.5 -7t-18.5 -14z" />
    <glyph glyph-name="endash" unicode="&#x2013;" horiz-adv-x="483" 
d="M40 350v60h403v-60h-403z" />
    <glyph glyph-name="emdash" unicode="&#x2014;" horiz-adv-x="563" 
d="M40 350v60h483v-60h-483z" />
    <glyph glyph-name="quoteleft" unicode="&#x2018;" horiz-adv-x="173" 
d="M113 738l28 -39q-24 -14 -38 -31.5t-16 -28.5l-2 -11h7q23 0 40 -17t17 -41q0 -23 -17 -39.5t-40 -16.5q-49 0 -63 47.5t11 102.5t73 74z" />
    <glyph glyph-name="quoteright" unicode="&#x2019;" horiz-adv-x="162" 
d="M55 486l-28 39q24 14 38 31.5t16 28.5l2 11h-7q-23 0 -40 17t-17 41q0 23 17 39.5t40 16.5q49 0 63 -47.5t-11 -102.5t-73 -74z" />
    <glyph glyph-name="quotesinglbase" unicode="&#x201a;" horiz-adv-x="215" 
d="M82 -120l-28 39q24 14 38 31.5t16 28.5l2 11h-7q-23 0 -40 17t-17 41q0 23 17 39.5t40 16.5q49 0 63 -47.5t-11 -102.5t-73 -74z" />
    <glyph glyph-name="quotedblleft" unicode="&#x201c;" horiz-adv-x="334" 
d="M108 738l28 -39q-24 -14 -38 -31.5t-16 -28.5l-2 -11h7q23 0 40 -17t17 -41q0 -23 -17 -39.5t-40 -16.5q-49 0 -63 47.5t11 102.5t73 74zM278 738l28 -39q-24 -14 -38 -31.5t-16 -28.5l-2 -11h7q23 0 40 -17t17 -41q0 -23 -17 -39.5t-40 -16.5q-49 0 -63 47.5t11 102.5
t73 74z" />
    <glyph glyph-name="quotedblright" unicode="&#x201d;" horiz-adv-x="334" 
d="M226 486l-28 39q24 14 38 31.5t16 28.5l2 11h-7q-23 0 -40 17t-17 41q0 23 17 39.5t40 16.5q49 0 63 -47.5t-11 -102.5t-73 -74zM56 486l-28 39q24 14 38 31.5t16 28.5l2 11h-7q-23 0 -40 17t-17 41q0 23 17 39.5t40 16.5q49 0 63 -47.5t-11 -102.5t-73 -74z" />
    <glyph glyph-name="quotedblbase" unicode="&#x201e;" horiz-adv-x="230" 
d="M95 -70h-60l-5 140h70zM195 -70h-60l-5 140h70z" />
    <glyph glyph-name="dagger" unicode="&#x2020;" horiz-adv-x="339" 
d="M48 389l-43 35q4 6 11 14.5t32.5 23t53.5 14.5q16 0 32 -6v280h70v-310q14 -6 27 -6q18 0 32.5 8.5t19.5 17.5l5 8l47 -30q-1 -3 -3.5 -7t-12 -14.5t-20.5 -19t-29 -15t-38 -6.5q-16 0 -28 4v-500h-70v529q-18 8 -32 8q-16 0 -29.5 -7t-18.5 -14z" />
    <glyph glyph-name="daggerdbl" unicode="&#x2021;" horiz-adv-x="341" 
d="M50 269l-43 35q4 6 11 14.5t32.5 23t53.5 14.5q16 0 32 -6v99q-18 8 -32 8q-16 0 -29.5 -7t-18.5 -14l-6 -7l-43 35q4 6 11 14.5t32.5 23t53.5 14.5q16 0 32 -6v240h70v-270q14 -6 27 -6q18 0 32.5 8.5t19.5 17.5l5 8l47 -30q-1 -3 -3.5 -7t-12 -14.5t-20.5 -19t-29 -15
t-38 -6.5q-16 0 -28 4v-100q14 -6 27 -6q18 0 32.5 8.5t19.5 17.5l5 8l47 -30q-1 -3 -3.5 -7t-12 -14.5t-20.5 -19t-29 -15t-38 -6.5q-16 0 -28 4v-380h-70v409q-18 8 -32 8q-16 0 -29.5 -7t-18.5 -14z" />
    <glyph glyph-name="bullet" unicode="&#x2022;" horiz-adv-x="286" 
d="M40 377q0 43 30 73t73 30t73 -30t30 -73t-30 -73t-73 -30t-73 30t-30 73zM93 377q0 -20 15 -35t35 -15t34.5 15t14.5 35t-14.5 34.5t-34.5 14.5t-35 -14.5t-15 -34.5z" />
    <glyph glyph-name="ellipsis" unicode="&#x2026;" horiz-adv-x="606" 
d="M64 47q0 23 17 40t40 17t40 -17t17 -40t-17 -40t-40 -17t-40 17t-17 40zM246 47q0 23 17 40t40 17t40 -17t17 -40t-17 -40t-40 -17t-40 17t-17 40zM428 47q0 23 17 40t40 17t40 -17t17 -40t-17 -40t-40 -17t-40 17t-17 40z" />
    <glyph glyph-name="perthousand" unicode="&#x2030;" horiz-adv-x="489" 
d="M145 0h-85l480 700h85zM166 434q-56 0 -94.5 39t-38.5 94t38.5 94t94.5 39t94.5 -39t38.5 -94t-38.5 -94t-94.5 -39zM166 498q28 0 48.5 20t20.5 49t-20.5 49t-48.5 20t-48.5 -20t-20.5 -49t20.5 -49t48.5 -20zM466 0q-56 0 -94.5 39t-38.5 94t38.5 94t94.5 39t94.5 -39
t38.5 -94t-38.5 -94t-94.5 -39zM466 64q28 0 48.5 20t20.5 49t-20.5 49t-48.5 20t-48.5 -20t-20.5 -49t20.5 -49t48.5 -20zM776 0q-56 0 -94.5 39t-38.5 94t38.5 94t94.5 39t94.5 -39t38.5 -94t-38.5 -94t-94.5 -39zM776 64q28 0 48.5 20t20.5 49t-20.5 49t-48.5 20
t-48.5 -20t-20.5 -49t20.5 -49t48.5 -20z" />
    <glyph glyph-name="guilsinglleft" unicode="&#x2039;" horiz-adv-x="367" 
d="M317 188l-49 -49l-238 239l238 238l49 -49l-176 -176l-14 -13l14 -13z" />
    <glyph glyph-name="guilsinglright" unicode="&#x203a;" horiz-adv-x="367" 
d="M99 139l-49 49l176 177l13 13l-13 13l-176 176l49 49l238 -238z" />
    <glyph glyph-name="fraction" unicode="&#x2044;" horiz-adv-x="489" 
d="M-1 0l374 700h80l-374 -700h-80z" />
    <glyph glyph-name="Euro" unicode="&#x20ac;" horiz-adv-x="706" 
d="M570 350v-60h-434q20 -101 99.5 -167.5t184.5 -66.5q118 0 207 91l49 -50q-105 -107 -256 -107q-133 0 -233.5 85.5t-121.5 214.5h-55v60h50q0 41 9 80h-59v60h78q42 98 131.5 159t200.5 61q149 0 254 -105l-49 -50q-89 89 -205 89q-82 0 -149.5 -42t-105.5 -112h405v-60
h-429q-11 -41 -11 -80h440z" />
    <glyph glyph-name="trademark" unicode="&#x2122;" horiz-adv-x="558" 
d="M129 464h-46v265h-63v41h170v-41h-61v-265zM461 642l25 -178h48l-50 306h-39l-65 -197l-10 -39l-9 38l-65 198h-41l-48 -306h47l26 177l3 39l11 -38l59 -178h35l59 178l11 38z" />
    <glyph glyph-name="minus" unicode="&#x2212;" horiz-adv-x="443" 
d="M40 350v60h363v-60h-363z" />
    <glyph glyph-name="ff" unicode="&#xfb00;" horiz-adv-x="569" 
d="M543 456v-60h-114v-396h-69v396h-171v-396h-69v396h-77v60h77v138q0 72 42.5 119t104.5 47q75 0 115 -73q42 72 125 72q118 0 156 -125l-65 -19q-21 84 -90 84q-35 0 -57 -29.5t-22 -74.5v-139h114zM272 700q-35 0 -59 -29.5t-24 -74.5v-140h171v134q0 54 -25 82t-63 28z
" />
    <glyph glyph-name="NULL" 
 />
    <glyph glyph-name="CR" horiz-adv-x="300" 
 />
    <glyph glyph-name="_0000" 
 />
    <glyph glyph-name="_0001" 
 />
    <glyph glyph-name="_0002" 
 />
    <glyph glyph-name="_0003" 
 />
    <glyph glyph-name="_0004" 
 />
    <glyph glyph-name="_0016" 
 />
    <glyph glyph-name="_0007" 
 />
    <glyph glyph-name="_0009" 
 />
    <glyph glyph-name="_0014" 
 />
    <glyph glyph-name="_0015" 
 />
    <glyph glyph-name="_0017" 
 />
    <glyph glyph-name="a.alt" horiz-adv-x="530" 
d="M460 456v-456h-66q0 54 2 72q-50 -82 -149 -82q-89 0 -148 65t-59 175q0 109 59 172.5t148 63.5q100 0 149 -82q-2 28 -2 42v30h66zM253 49q67 0 104 48t37 131t-37 131t-104 48q-59 0 -102.5 -49.5t-43.5 -127.5q0 -79 43.5 -130t102.5 -51z" />
    <glyph glyph-name="_0018" 
 />
    <glyph glyph-name="_0019" 
 />
    <glyph glyph-name="_0020" 
 />
    <glyph glyph-name="_0021" 
 />
    <glyph glyph-name="_0022" 
 />
    <glyph glyph-name="g.alt" horiz-adv-x="554" 
d="M265 -10q-89 0 -148 65t-59 175q0 109 59 172.5t148 63.5q86 0 142 -69v59h70v-504q0 -98 -54 -155.5t-134 -57.5q-53 0 -100.5 25.5t-79.5 77.5l56 37q45 -76 125 -76q52 0 84.5 39.5t32.5 110.5v106q-54 -69 -142 -69zM271 49q67 0 104 48t37 131t-37 131t-104 48
q-59 0 -102.5 -49.5t-43.5 -127.5q0 -80 41 -130.5t105 -50.5z" />
    <glyph glyph-name="A.small" horiz-adv-x="495" 
d="M477 0h-72l-47 127h-220l-45 -127h-73l193 533h67zM226 377l-67 -190h177l-69 190q-4 9 -7.5 21t-6 21t-4.5 17l-2 7z" />
    <glyph glyph-name="B.small" horiz-adv-x="490" 
d="M270 0h-190v533h184q60 0 94.5 -39t34.5 -90q0 -57 -38 -93q41 -20 65 -58.5t24 -88.5q0 -67 -45 -115.5t-129 -48.5zM150 62h122q51 0 77.5 31.5t26.5 74.5q0 40 -27.5 70.5t-75.5 30.5h-123v-207zM150 471v-142h125q23 1 36.5 23.5t13.5 50.5q0 29 -18.5 48.5
t-55.5 19.5h-101z" />
    <glyph glyph-name="C.small" horiz-adv-x="565" 
d="M479 144l51 -42q-83 -112 -222 -112q-116 0 -197 81t-81 197q0 115 81 195t197 80q119 0 200 -84l-46 -46q-63 66 -154 66q-90 0 -149 -60.5t-59 -150.5q0 -91 59 -151t149 -60q106 0 171 87z" />
    <glyph glyph-name="D.small" horiz-adv-x="523" 
d="M80 0v533h121q132 0 201 -64.5t69 -189.5q0 -279 -240 -279h-151zM150 60h81q94 0 132 54.5t38 165.5q0 100 -48 146.5t-143 46.5h-60v-413z" />
    <glyph glyph-name="E.small" horiz-adv-x="475" 
d="M404 64v-64h-324v533h324v-64h-254v-152h193v-60h-193v-193h254z" />
    <glyph glyph-name="F.small" horiz-adv-x="422" 
d="M150 0h-70v534h324v-64h-254v-153h193v-60h-193v-257z" />
    <glyph glyph-name="G.small" horiz-adv-x="603" 
d="M543 102q-83 -112 -222 -112q-115 0 -196.5 81t-81.5 197q0 115 81 195t197 80q119 0 200 -84l-46 -46q-63 66 -154 66q-90 0 -149 -60.5t-59 -150.5q0 -91 59 -151t149 -60t152 65v114h-117v60h187v-194z" />
    <glyph glyph-name="H.small" horiz-adv-x="515" 
d="M435 0h-70v259h-215v-259h-70v533h70v-214h215v214h70v-533z" />
    <glyph glyph-name="I.small" horiz-adv-x="299" 
d="M249 0h-199v60h65v414h-65v60h199v-60h-64v-414h64v-60z" />
    <glyph glyph-name="J.small" horiz-adv-x="315" 
d="M18 5l31 60q20 -11 43 -11q78 0 78 104v375h71v-360q0 -92 -42.5 -137.5t-106.5 -45.5q-43 0 -74 15z" />
    <glyph glyph-name="K.small" horiz-adv-x="474" 
d="M459 0h-76l-153 231q-4 7 -21 41l-59 -73v-199h-70v533h70v-215q0 -7 -0.5 -17t-1 -16.5t-0.5 -7.5q4 12 22 33l171 223h81l-172 -211z" />
    <glyph glyph-name="L.small" horiz-adv-x="430" 
d="M390 70v-70h-310v533h70v-463h240z" />
    <glyph glyph-name="M.small" horiz-adv-x="661" 
d="M544 533l77 -533h-74l-46 382q-4 28 -4 49l-14 -47l-133 -384h-44l-136 384q-3 8 -6.5 19.5t-5.5 20.5l-3 8q0 -20 -3 -50l-41 -382h-74l73 533h74l133 -364l10 -42q5 28 10 42l133 364h74z" />
    <glyph glyph-name="N.small" horiz-adv-x="526" 
d="M446 533v-533h-70v115l-210 282q-10 11 -18 27v-6q1 -6 1.5 -14t0.5 -14v-390h-70v533h75l205 -278q4 -6 8.5 -13t7.5 -12l2 -4v6q-1 5 -1.5 13.5t-0.5 15.5v272h70z" />
    <glyph glyph-name="O.small" horiz-adv-x="614" 
d="M308 -10q-116 0 -197 81t-81 197q0 115 81 195t197 80q115 0 196 -80t81 -195t-81 -196.5t-196 -81.5zM308 57q90 0 149 60.5t59 150.5t-59 150.5t-149 60.5t-149 -60.5t-59 -150.5q0 -91 59 -151t149 -60z" />
    <glyph glyph-name="P.small" horiz-adv-x="415" 
d="M150 0h-70v533h161q78 0 123 -47t45 -111q0 -67 -44 -116t-124 -49h-91v-210zM241 276q46 0 71 29.5t25 70.5q0 35 -26 63t-70 28h-91v-191h91z" />
    <glyph glyph-name="Q.small" horiz-adv-x="615" 
d="M308 -10q-116 0 -197 81t-81 197q0 115 81 195t197 80q115 0 196 -80t81 -195q0 -99 -61 -174l62 -62l-42 -42l-62 62q-76 -62 -174 -62zM308 57q73 0 127 41l-52 53l42 42l52 -52q39 55 39 127q0 90 -59 150.5t-149 60.5t-149 -60.5t-59 -150.5q0 -91 59 -151t149 -60z
" />
    <glyph glyph-name="R.small" horiz-adv-x="476" 
d="M150 0h-70v533h161q78 0 123 -47t45 -111q0 -50 -25.5 -92t-72.5 -61l111 -222h-76l-106 210h-90v-210zM241 276q46 0 71 29.5t25 70.5q0 35 -26 63t-70 28h-91v-191h91z" />
    <glyph glyph-name="S.small" horiz-adv-x="388" 
d="M298 489l-50 -38q-21 34 -65 34q-27 0 -45.5 -19t-18.5 -48t23.5 -52t56.5 -41t66 -39.5t56.5 -59t23.5 -88.5q0 -58 -40.5 -103t-112.5 -45q-59 0 -104.5 32.5t-57.5 85.5l60 20q12 -40 39.5 -60t62.5 -20q39 0 61.5 26.5t22.5 58.5q0 42 -23 72t-56 48.5t-66.5 37.5
t-56.5 50t-23 74q0 58 38.5 93t94.5 35q78 0 114 -54z" />
    <glyph glyph-name="T.small" horiz-adv-x="390" 
d="M230 0h-70v473h-140v60h350v-60h-140v-473z" />
    <glyph glyph-name="U.small" horiz-adv-x="528" 
d="M264 54q55 0 91.5 35t36.5 99v345h71v-330q0 -111 -58 -162t-141 -51t-141 51t-58 162v330h71v-345q0 -64 36.5 -99t91.5 -35z" />
    <glyph glyph-name="V.small" horiz-adv-x="495" 
d="M405 533h72l-197 -533h-67l-193 533h73l133 -377l21 -67q9 38 20 67z" />
    <glyph glyph-name="W.small" horiz-adv-x="718" 
d="M689 533l-196 -533h-67l-48 131q-18 49 -18 62q-17 -58 -18 -62l-49 -131h-67l-195 533h74l142 -390l16 -54q7 29 16 54l47 134l-96 256h74l38 -103q9 -24 20 -69q4 26 20 69l38 103h71l-95 -256l51 -134q4 -11 8 -24t6 -20.5t2 -8.5q3 16 16 53l139 390h71z" />
    <glyph glyph-name="X.small" horiz-adv-x="412" 
d="M243 273l146 -273h-73l-95 177q-15 27 -15 31l-2 -5q-3 -5 -6 -12t-7 -14l-94 -177h-73l145 273l-139 260h74l87 -163l15 -31q4 11 15 31l87 163h74z" />
    <glyph glyph-name="Y.small" horiz-adv-x="426" 
d="M249 0h-70v287l-171 246h81l106 -156l19 -27q9 12 20 28l102 155h82l-169 -247v-286z" />
    <glyph glyph-name="Z.small" horiz-adv-x="466" 
d="M64 60l245 391l14 22h-249v60h323v-60l-246 -391l-14 -22h270v-60h-343v60z" />
    <glyph glyph-name="one.oldstyle" horiz-adv-x="358" 
d="M318 0h-270v60h100v396l-81 -40l-27 54l126 63h52v-473h100v-60z" />
    <glyph glyph-name="two.oldstyle" horiz-adv-x="547" 
d="M477 0h-407v54q13 5 34 15t75 42.5t95 66t75 83.5t34 99q0 56 -27.5 87t-78.5 31t-80 -32t-29 -81q0 -31 12 -64l-66 -19q-17 42 -17 86q0 76 50.5 125.5t129.5 49.5q87 0 132.5 -48.5t45.5 -134.5q0 -50 -22.5 -96.5t-60.5 -83.5t-73.5 -62.5t-75.5 -47.5h254v-70z" />
    <glyph glyph-name="three.oldstyle" horiz-adv-x="455" 
d="M209 -118q-42 0 -76 11.5t-53.5 28t-32.5 33.5t-17 29l-5 11l58 34q37 -83 127 -83q62 0 94.5 38.5t32.5 96.5q0 64 -35.5 98.5t-96.5 34.5h-20v54q50 0 81 32t31 84q0 45 -25 69.5t-59 24.5q-32 0 -55.5 -21t-24.5 -59h-69q0 68 44 107t104 39q63 0 108.5 -42t45.5 -118
q0 -87 -70 -132q111 -38 111 -170q0 -87 -52.5 -143.5t-145.5 -56.5z" />
    <glyph glyph-name="four.oldstyle" horiz-adv-x="482" 
d="M350 -117h-70v180h-260v40l278 430h52v-410h100v-60h-100v-180zM106 123h174v263z" />
    <glyph glyph-name="five.oldstyle" horiz-adv-x="518" 
d="M401 463h-246v-186q39 37 112 37q96 0 149.5 -61.5t53.5 -146.5q0 -91 -59 -157.5t-164 -66.5q-42 0 -76.5 11.5t-54 28t-33 33.5t-18.5 29l-5 11l58 34q14 -33 46.5 -58t83.5 -25q72 0 112.5 46t40.5 109q0 61 -38.5 105.5t-105.5 44.5q-37 0 -66.5 -13.5t-40.5 -27.5
l-11 -13l-52 31v305h314v-70z" />
    <glyph glyph-name="six.oldstyle" horiz-adv-x="504" 
d="M260 368q-64 0 -100 -48t-36 -114q0 -63 37 -109.5t98 -46.5q58 0 93.5 47.5t35.5 112.5q0 64 -34 111t-94 47zM261 -10q-102 0 -156.5 73.5t-54.5 184.5q0 92 28.5 172t92.5 142.5t155 87.5l22 -62q-40 -12 -74.5 -31.5t-57 -41.5t-40.5 -45t-28 -44t-16.5 -38t-8.5 -27
l-2 -10q56 77 153 77q87 0 136 -65.5t49 -149.5t-53 -153.5t-145 -69.5z" />
    <glyph glyph-name="seven.oldstyle" horiz-adv-x="467" 
d="M236 -118h-70q0 94 15.5 183t45 167t48 116.5t48.5 95.5q7 13 10 19h-303v70h387v-54q-7 -10 -19.5 -28.5t-43.5 -79.5t-55 -126.5t-43.5 -164.5t-19.5 -198z" />
    <glyph glyph-name="eight.oldstyle" horiz-adv-x="511" 
d="M256 -10q-93 0 -144.5 56t-51.5 133q0 59 28 102t76 65q-74 48 -74 140q0 68 44.5 118t121.5 50t121.5 -50t44.5 -118q0 -91 -74 -140q47 -22 75 -65t28 -102q0 -77 -51 -133t-144 -56zM256 51q61 0 94 39t33 92t-33 92t-94 39t-94 -39t-33 -92t33 -92t94 -39zM256 370
q45 0 71.5 34t26.5 80t-26 79t-72 33t-72 -33t-26 -79t26.5 -80t71.5 -34z" />
    <glyph glyph-name="nine.oldstyle" horiz-adv-x="523" 
d="M253 165q64 0 100 48t36 114q0 63 -37 109.5t-98 46.5q-58 0 -93.5 -47.5t-35.5 -112.5q0 -64 34 -111t94 -47zM252 543q102 0 156.5 -73.5t54.5 -184.5q0 -92 -28.5 -172t-92.5 -142.5t-155 -87.5l-22 62q40 12 74.5 31.5t57 41.5t40.5 45t28 44t16.5 38t8.5 27l2 10
q-56 -77 -153 -77q-87 0 -136 65.5t-49 149.5t53 153.5t145 69.5z" />
    <glyph glyph-name="zero.oldstyle" horiz-adv-x="614" 
d="M308 -10q-116 0 -197 81t-81 197q0 115 81 195t197 80q115 0 196 -80t81 -195t-81 -196.5t-196 -81.5zM308 57q90 0 149 60.5t59 150.5t-59 150.5t-149 60.5t-149 -60.5t-59 -150.5q0 -91 59 -151t149 -60z" />
    <glyph glyph-name="Agrave.small" horiz-adv-x="495" 
d="M477 0h-72l-47 127h-220l-45 -127h-73l193 533h67zM226 377l-67 -190h177l-69 190q-4 9 -7.5 21t-6 21t-4.5 17l-2 7zM105 688l43 47l145 -135l-43 -47z" />
    <glyph glyph-name="Aacute.small" horiz-adv-x="495" 
d="M477 0h-72l-47 127h-220l-45 -127h-73l193 533h67zM226 377l-67 -190h177l-69 190q-4 9 -7.5 21t-6 21t-4.5 17l-2 7zM330 735l43 -47l-145 -135l-43 47z" />
    <glyph glyph-name="Acircumflex.small" horiz-adv-x="495" 
d="M477 0h-72l-47 127h-220l-45 -127h-73l193 533h67zM226 377l-67 -190h177l-69 190q-4 9 -7.5 21t-6 21t-4.5 17l-2 7zM171 559l-49 49l91 92h65l93 -92l-49 -49l-63 73l-13 14q-5 -4 -13 -14z" />
    <glyph glyph-name="Atilde.small" horiz-adv-x="497" 
d="M120 599l-43 35q4 6 11 14.5t32.5 23t53.5 14.5q25 0 68.5 -21t60.5 -21q18 0 32.5 8.5t19.5 17.5l5 8l47 -30q-1 -3 -3.5 -7t-12 -14.5t-20.5 -19t-29 -15t-38 -6.5q-28 0 -70.5 20.5t-59.5 20.5q-16 0 -29.5 -7t-18.5 -14zM477 0h-72l-47 127h-220l-45 -127h-73
l193 533h67zM226 377l-67 -190h177l-69 190q-4 9 -7.5 21t-6 21t-4.5 17l-2 7z" />
    <glyph glyph-name="Adieresis.small" horiz-adv-x="495" 
d="M477 0h-72l-47 127h-220l-45 -127h-73l193 533h67zM226 377l-67 -190h177l-69 190q-4 9 -7.5 21t-6 21t-4.5 17l-2 7zM103 624q0 21 14.5 36t35.5 15t36 -15t15 -36t-15 -35.5t-36 -14.5t-35.5 14.5t-14.5 35.5zM288 624q0 21 14.5 36t35.5 15t36 -15t15 -36t-15 -35.5
t-36 -14.5t-35.5 14.5t-14.5 35.5z" />
    <glyph glyph-name="Aring.small" horiz-adv-x="495" 
d="M477 0h-72l-47 127h-220l-45 -127h-73l193 533h67zM226 377l-67 -190h177l-69 190q-4 9 -7.5 21t-6 21t-4.5 17l-2 7zM197 691q0 -20 15 -35t35 -15t34.5 15t14.5 35t-14.5 34.5t-34.5 14.5t-35 -14.5t-15 -34.5zM144 691q0 43 30 73t73 30t73 -30t30 -73t-30 -73
t-73 -30t-73 30t-30 73z" />
    <glyph glyph-name="AE.small" horiz-adv-x="754" 
d="M680 64v-64h-324v155h-186l-100 -155h-83l346 533h347v-64h-254v-152h193v-60h-193v-193h254zM208 215h148v229z" />
    <glyph glyph-name="agrave.alt" horiz-adv-x="551" 
d="M460 0v456h-66v-30q0 -14 2 -42q-49 82 -149 82q-89 0 -148 -63.5t-59 -172.5q0 -110 59 -175t148 -65q99 0 149 82q-2 -18 -2 -72h66zM253 49q-59 0 -102.5 51t-43.5 130q0 78 43.5 127.5t102.5 49.5q67 0 104 -48t37 -131t-37 -131t-104 -48zM145 638l43 47l145 -135
l-43 -47z" />
    <glyph glyph-name="aacute.alt" horiz-adv-x="551" 
d="M460 0v456h-66v-30q0 -14 2 -42q-49 82 -149 82q-89 0 -148 -63.5t-59 -172.5q0 -110 59 -175t148 -65q99 0 149 82q-2 -18 -2 -72h66zM253 49q-59 0 -102.5 51t-43.5 130q0 78 43.5 127.5t102.5 49.5q67 0 104 -48t37 -131t-37 -131t-104 -48zM320 685l43 -47l-145 -135
l-43 47z" />
    <glyph glyph-name="acircumflex.alt" horiz-adv-x="551" 
d="M460 0v456h-66v-30q0 -14 2 -42q-49 82 -149 82q-89 0 -148 -63.5t-59 -172.5q0 -110 59 -175t148 -65q99 0 149 82q-2 -18 -2 -72h66zM253 49q-59 0 -102.5 51t-43.5 130q0 78 43.5 127.5t102.5 49.5q67 0 104 -48t37 -131t-37 -131t-104 -48zM193 519l-49 49l91 92h65
l93 -92l-49 -49l-63 73l-13 14q-5 -4 -13 -14z" />
    <glyph glyph-name="atilde.alt" horiz-adv-x="551" 
d="M460 456v-456h-66q0 54 2 72q-50 -82 -149 -82q-89 0 -148 65t-59 175q0 109 59 172.5t148 63.5q100 0 149 -82q-2 28 -2 42v30h66zM253 49q67 0 104 48t37 131t-37 131t-104 48q-59 0 -102.5 -49.5t-43.5 -127.5q0 -79 43.5 -130t102.5 -51zM142 529l-43 35q4 6 11 14.5
t32.5 23t53.5 14.5q25 0 68.5 -21t60.5 -21q18 0 32.5 8.5t19.5 17.5l5 8l47 -30q-1 -3 -3.5 -7t-12 -14.5t-20.5 -19t-29 -15t-38 -6.5q-28 0 -70.5 20.5t-59.5 20.5q-16 0 -29.5 -7t-18.5 -14z" />
    <glyph glyph-name="adieresis.alt" horiz-adv-x="551" 
d="M460 0v456h-66v-30q0 -14 2 -42q-49 82 -149 82q-89 0 -148 -63.5t-59 -172.5q0 -110 59 -175t148 -65q99 0 149 82q-2 -18 -2 -72h66zM253 49q-59 0 -102.5 51t-43.5 130q0 78 43.5 127.5t102.5 49.5q67 0 104 -48t37 -131t-37 -131t-104 -48zM127 574q0 21 14.5 36
t35.5 15t36 -15t15 -36t-15 -35.5t-36 -14.5t-35.5 14.5t-14.5 35.5zM312 574q0 21 14.5 36t35.5 15t36 -15t15 -36t-15 -35.5t-36 -14.5t-35.5 14.5t-14.5 35.5z" />
    <glyph glyph-name="aring.alt" horiz-adv-x="551" 
d="M460 0v456h-66v-30q0 -14 2 -42q-49 82 -149 82q-89 0 -148 -63.5t-59 -172.5q0 -110 59 -175t148 -65q99 0 149 82q-2 -18 -2 -72h66zM253 49q-59 0 -102.5 51t-43.5 130q0 78 43.5 127.5t102.5 49.5q67 0 104 -48t37 -131t-37 -131t-104 -48zM220 611q0 -20 15 -35
t35 -15t34.5 15t14.5 35t-14.5 34.5t-34.5 14.5t-35 -14.5t-15 -34.5zM167 611q0 43 30 73t73 30t73 -30t30 -73t-30 -73t-73 -30t-73 30t-30 73z" />
    <glyph glyph-name="Ccedilla.small" horiz-adv-x="565" 
d="M479 144l51 -42q-83 -112 -222 -112q-11 0 -33 2v-61q4 6 17 12t28 6q36 0 55.5 -25t19.5 -61q0 -39 -25.5 -67t-70.5 -28q-17 0 -32 5.5t-25 13t-17.5 15.5t-10.5 14l-3 5l44 24q14 -27 44 -27q21 0 33.5 13.5t12.5 31.5q0 16 -11 28.5t-31 12.5q-24 0 -37 -24l-37 15
v106q-87 26 -143 99.5t-56 167.5q0 115 81 195t197 80q119 0 200 -84l-46 -46q-63 66 -154 66q-90 0 -149 -60.5t-59 -150.5q0 -91 59 -151t149 -60q106 0 171 87z" />
    <glyph glyph-name="Egrave.small" horiz-adv-x="475" 
d="M404 64v-64h-324v533h324v-64h-254v-152h193v-60h-193v-193h254zM140 698l43 47l145 -135l-43 -47z" />
    <glyph glyph-name="Eacute.small" horiz-adv-x="475" 
d="M404 64v-64h-324v533h324v-64h-254v-152h193v-60h-193v-193h254zM290 745l43 -47l-145 -135l-43 47z" />
    <glyph glyph-name="Ecircumflex.small" horiz-adv-x="475" 
d="M404 64v-64h-324v533h324v-64h-254v-152h193v-60h-193v-193h254zM164 579l-49 49l91 92h65l93 -92l-49 -49l-63 73l-13 14q-5 -4 -13 -14z" />
    <glyph glyph-name="Edieresis.small" horiz-adv-x="475" 
d="M404 64v-64h-324v533h324v-64h-254v-152h193v-60h-193v-193h254zM98 644q0 21 14.5 36t35.5 15t36 -15t15 -36t-15 -35.5t-36 -14.5t-35.5 14.5t-14.5 35.5zM283 644q0 21 14.5 36t35.5 15t36 -15t15 -36t-15 -35.5t-36 -14.5t-35.5 14.5t-14.5 35.5z" />
    <glyph glyph-name="Igrave.small" horiz-adv-x="299" 
d="M249 0h-199v60h65v414h-65v60h199v-60h-64v-414h64v-60zM45 708l43 47l145 -135l-43 -47z" />
    <glyph glyph-name="Iacute.small" horiz-adv-x="299" 
d="M249 0h-199v60h65v414h-65v60h199v-60h-64v-414h64v-60zM190 755l43 -47l-145 -135l-43 47z" />
    <glyph glyph-name="Icircumflex.small" horiz-adv-x="299" 
d="M249 0h-199v60h65v414h-65v60h199v-60h-64v-414h64v-60zM76 579l-49 49l91 92h65l93 -92l-49 -49l-63 73l-13 14q-5 -4 -13 -14z" />
    <glyph glyph-name="Idieresis.small" horiz-adv-x="299" 
d="M249 0h-199v60h65v414h-65v60h199v-60h-64v-414h64v-60zM7 644q0 21 14.5 36t35.5 15t36 -15t15 -36t-15 -35.5t-36 -14.5t-35.5 14.5t-14.5 35.5zM192 644q0 21 14.5 36t35.5 15t36 -15t15 -36t-15 -35.5t-36 -14.5t-35.5 14.5t-14.5 35.5z" />
    <glyph glyph-name="Eth.small" horiz-adv-x="523" 
d="M20 247v60h60v226h121q132 0 201 -64.5t69 -189.5q0 -279 -240 -279h-151v247h-60zM150 60h81q94 0 132 54.5t38 165.5q0 100 -48 146.5t-143 46.5h-60v-166h123v-60h-123v-187z" />
    <glyph glyph-name="Ntilde.small" horiz-adv-x="526" 
d="M446 533v-533h-70v115l-210 282q-10 11 -18 27v-6q1 -6 1.5 -14t0.5 -14v-390h-70v533h75l205 -278q4 -6 8.5 -13t7.5 -12l2 -4v6q-1 5 -1.5 13.5t-0.5 15.5v272h70zM138 609l-43 35q4 6 11 14.5t32.5 23t53.5 14.5q25 0 68.5 -21t60.5 -21q18 0 32.5 8.5t19.5 17.5l5 8
l47 -30q-1 -3 -3.5 -7t-12 -14.5t-20.5 -19t-29 -15t-38 -6.5q-28 0 -70.5 20.5t-59.5 20.5q-16 0 -29.5 -7t-18.5 -14z" />
    <glyph glyph-name="Ograve.small" horiz-adv-x="614" 
d="M308 -10q-116 0 -197 81t-81 197q0 115 81 195t197 80q115 0 196 -80t81 -195t-81 -196.5t-196 -81.5zM308 57q90 0 149 60.5t59 150.5t-59 150.5t-149 60.5t-149 -60.5t-59 -150.5q0 -91 59 -151t149 -60zM215 708l43 47l145 -135l-43 -47z" />
    <glyph glyph-name="Oacute.small" horiz-adv-x="614" 
d="M308 -10q-116 0 -197 81t-81 197q0 115 81 195t197 80q115 0 196 -80t81 -195t-81 -196.5t-196 -81.5zM308 57q90 0 149 60.5t59 150.5t-59 150.5t-149 60.5t-149 -60.5t-59 -150.5q0 -91 59 -151t149 -60zM350 755l43 -47l-145 -135l-43 47z" />
    <glyph glyph-name="Otilde.small" horiz-adv-x="614" 
d="M308 -10q-116 0 -197 81t-81 197q0 115 81 195t197 80q115 0 196 -80t81 -195t-81 -196.5t-196 -81.5zM308 57q90 0 149 60.5t59 150.5t-59 150.5t-149 60.5t-149 -60.5t-59 -150.5q0 -91 59 -151t149 -60zM186 609l-43 35q4 6 11 14.5t32.5 23t53.5 14.5q25 0 68.5 -21
t60.5 -21q18 0 32.5 8.5t19.5 17.5l5 8l47 -30q-1 -3 -3.5 -7t-12 -14.5t-20.5 -19t-29 -15t-38 -6.5q-28 0 -70.5 20.5t-59.5 20.5q-16 0 -29.5 -7t-18.5 -14z" />
    <glyph glyph-name="Odieresis.small" horiz-adv-x="614" 
d="M308 -10q-116 0 -197 81t-81 197q0 115 81 195t197 80q115 0 196 -80t81 -195t-81 -196.5t-196 -81.5zM308 57q90 0 149 60.5t59 150.5t-59 150.5t-149 60.5t-149 -60.5t-59 -150.5q0 -91 59 -151t149 -60zM168 634q0 21 14.5 36t35.5 15t36 -15t15 -36t-15 -35.5
t-36 -14.5t-35.5 14.5t-14.5 35.5zM353 634q0 21 14.5 36t35.5 15t36 -15t15 -36t-15 -35.5t-36 -14.5t-35.5 14.5t-14.5 35.5z" />
    <glyph glyph-name="Oslash.small" horiz-adv-x="614" 
d="M308 -10q-116 0 -197 81t-81 197q0 115 81 195t197 80q115 0 196 -80t81 -195t-81 -196.5t-196 -81.5zM100 268q0 -112 83 -172l199 370q-33 13 -74 13q-90 0 -149 -60.5t-59 -150.5zM308 57q90 0 149 60.5t59 150.5q0 108 -80 169l-198 -369q35 -11 70 -11z" />
    <glyph glyph-name="Ugrave.small" horiz-adv-x="528" 
d="M264 54q-55 0 -91.5 35t-36.5 99v345h-71v-330q0 -111 58 -162t141 -51t141 51t58 162v330h-71v-345q0 -64 -36.5 -99t-91.5 -35zM165 698l43 47l145 -135l-43 -47z" />
    <glyph glyph-name="Uacute.small" horiz-adv-x="528" 
d="M264 54q-55 0 -91.5 35t-36.5 99v345h-71v-330q0 -111 58 -162t141 -51t141 51t58 162v330h-71v-345q0 -64 -36.5 -99t-91.5 -35zM305 745l43 -47l-145 -135l-43 47z" />
    <glyph glyph-name="Ucircumflex.small" horiz-adv-x="528" 
d="M264 54q-55 0 -91.5 35t-36.5 99v345h-71v-330q0 -111 58 -162t141 -51t141 51t58 162v330h-71v-345q0 -64 -36.5 -99t-91.5 -35zM191 569l-49 49l91 92h65l93 -92l-49 -49l-63 73l-13 14q-5 -4 -13 -14z" />
    <glyph glyph-name="Udieresis.small" horiz-adv-x="528" 
d="M264 54q-55 0 -91.5 35t-36.5 99v345h-71v-330q0 -111 58 -162t141 -51t141 51t58 162v330h-71v-345q0 -64 -36.5 -99t-91.5 -35zM121 634q0 21 14.5 36t35.5 15t36 -15t15 -36t-15 -35.5t-36 -14.5t-35.5 14.5t-14.5 35.5zM306 634q0 21 14.5 36t35.5 15t36 -15t15 -36
t-15 -35.5t-36 -14.5t-35.5 14.5t-14.5 35.5z" />
    <glyph glyph-name="Yacute.small" horiz-adv-x="426" 
d="M249 0h-70v287l-171 246h81l106 -156l19 -27q9 12 20 28l102 155h82l-169 -247v-286zM250 745l43 -47l-145 -135l-43 47z" />
    <glyph glyph-name="Thorn.small" horiz-adv-x="432" 
d="M150 0h-70v533h70v-100h91q78 0 123 -47t45 -111q0 -67 -44 -116t-124 -49h-91v-110zM241 176q46 0 71 29.5t25 70.5q0 35 -26 63t-70 28h-91v-191h91z" />
    <glyph glyph-name="Ocircumflex.small" horiz-adv-x="614" 
d="M308 -10q-116 0 -197 81t-81 197q0 115 81 195t197 80q115 0 196 -80t81 -195t-81 -196.5t-196 -81.5zM308 57q90 0 149 60.5t59 150.5t-59 150.5t-149 60.5t-149 -60.5t-59 -150.5q0 -91 59 -151t149 -60zM233 579l-49 49l91 92h65l93 -92l-49 -49l-63 73l-13 14
q-5 -4 -13 -14z" />
    <glyph glyph-name="Zcaron.small" horiz-adv-x="466" 
d="M64 60l245 391l14 22h-249v60h323v-60l-246 -391l-14 -22h270v-60h-343v60zM111 681l49 49l62 -73l13 -14q5 4 13 14l63 73l49 -49l-93 -92h-65z" />
    <glyph glyph-name="Lslash.small" horiz-adv-x="450" 
d="M390 70v-70h-310v232l-48 -14l-18 62l66 19v234h70v-213l179 53l18 -62l-197 -59v-182h240z" />
    <glyph glyph-name="OE.small" horiz-adv-x="719" 
d="M680 64v-64h-405q-90 0 -152.5 55t-77 133t1 156.5t82.5 133.5t166 55h385v-64h-254v-152h193v-60h-193v-193h254zM275 60h81v413h-60q-50 0 -90 -22.5t-61.5 -58t-32 -79t-2.5 -87.5t26.5 -80.5t55 -60t83.5 -25.5z" />
    <glyph glyph-name="parenleft.small" horiz-adv-x="255" 
d="M213 -73l-50 -43q-62 72 -95 173.5t-33 211.5t33 211.5t95 173.5l50 -43q-111 -137 -111 -342t111 -342z" />
    <glyph glyph-name="parenright.small" horiz-adv-x="255" 
d="M85 -116l-50 43q111 137 111 342t-111 342l50 43q62 -72 95 -173.5t33 -211.5t-33 -211.5t-95 -173.5z" />
    <glyph glyph-name="parenleft.lower" horiz-adv-x="255" 
d="M157 -107q-122 160 -122 420t122 420l52 -40q-108 -144 -108 -380t108 -380z" />
    <glyph glyph-name="parenright.lower" horiz-adv-x="255" 
d="M87 -107l-52 40q108 144 108 380t-108 380l52 40q122 -160 122 -420t-122 -420z" />
    <glyph glyph-name="numbersign.small" horiz-adv-x="590" 
d="M240 0h-70v158h-103v70h103v103h-103v70h103v132h70v-132h110v132h70v-132h97v-70h-97v-103h97v-70h-97v-158h-70v158h-110v-158zM240 331v-103h110v103h-110z" />
    <glyph glyph-name="dollar.small" horiz-adv-x="404" 
d="M308 489l-50 -38q-21 34 -65 34q-27 0 -45.5 -19t-18.5 -48t23.5 -52t56.5 -41t66 -39.5t56.5 -59t23.5 -88.5t-31.5 -93t-88.5 -52v-69h-70v70q-47 8 -81 38.5t-44 75.5l60 20q12 -40 39.5 -60t62.5 -20q39 0 61.5 26.5t22.5 58.5q0 42 -23 72t-56 48.5t-66.5 37.5
t-56.5 50t-23 74q0 50 29 83.5t75 41.5v54h70v-56q49 -13 73 -49z" />
    <glyph glyph-name="percent.small" horiz-adv-x="568" 
d="M145 0h-85l364 533h85zM421 -10q-47 0 -79 32t-32 79t32 79t79 32t79 -32t32 -79t-32 -79t-79 -32zM421 50q21 0 36 15t15 36t-15 36t-36 15t-36 -15t-15 -36t15 -36t36 -15zM146 321q-46 0 -78.5 32.5t-32.5 78.5t32.5 78.5t78.5 32.5t78.5 -32.5t32.5 -78.5
t-32.5 -78.5t-78.5 -32.5zM146 381q21 0 36 15t15 36t-15 36t-36 15t-36 -15t-15 -36t15 -36t36 -15z" />
    <glyph glyph-name="Euro.small" horiz-adv-x="628" 
d="M540 144l51 -42q-83 -112 -222 -112q-89 0 -159.5 50t-100.5 130h-78v60h62q-2 24 -2 38q0 10 2 32h-62v60h76q29 81 100.5 132t161.5 51q119 0 200 -84l-46 -46q-63 66 -154 66q-65 0 -114.5 -32.5t-74.5 -86.5h281v-60h-298q-2 -11 -2 -32q0 -20 3 -38h297v-60h-279
q26 -53 75 -83t112 -30q106 0 171 87z" />
    <glyph glyph-name="sterling.small" horiz-adv-x="486" 
d="M439 60v-60h-393v60h42q20 49 9 124h-52v60h43q-10 70 -10 113q0 94 49 140t128 46q78 0 124 -46.5t46 -118.5q0 -34 -12 -72l-67 18q8 29 8 51q0 41 -26.5 72t-72.5 31q-48 0 -77.5 -29.5t-29.5 -91.5q0 -41 8 -113h143v-60h-136q9 -81 -9 -124h285z" />
    <glyph glyph-name="cent.small" horiz-adv-x="408" 
d="M327 177l51 -42q-47 -61 -121 -73v-63h-70v65q-69 14 -113.5 70t-44.5 130t44.5 130t113.5 70v70h70v-69q66 -10 113 -61l-47 -46q-41 46 -98 46q-56 0 -91.5 -39.5t-35.5 -100.5t36 -100t91 -39q67 0 102 52z" />
    <glyph glyph-name="yen.small" horiz-adv-x="489" 
d="M280 0h-70v100h-121v60h121v50h-121v60h121v28l-176 235h85l126 -170l122 170h86l-173 -236v-27h119v-60h-119v-50h119v-60h-119v-100z" />
    <glyph glyph-name="Scaron.small" horiz-adv-x="388" 
d="M298 489l-50 -38q-21 34 -65 34q-27 0 -45.5 -19t-18.5 -48t23.5 -52t56.5 -41t66 -39.5t56.5 -59t23.5 -88.5q0 -58 -40.5 -103t-112.5 -45q-59 0 -104.5 32.5t-57.5 85.5l60 20q12 -40 39.5 -60t62.5 -20q39 0 61.5 26.5t22.5 58.5q0 42 -23 72t-56 48.5t-66.5 37.5
t-56.5 50t-23 74q0 58 38.5 93t94.5 35q78 0 114 -54zM61 681l49 49l62 -73l13 -14q5 4 13 14l63 73l49 -49l-93 -92h-65z" />
    <glyph glyph-name="M.alt" horiz-adv-x="826" 
d="M190 0h-70v700h70l223 -331l223 331h70v-700h-70v571l-223 -329l-223 329v-571z" />
    <glyph glyph-name="M.small.alt" horiz-adv-x="666" 
d="M150 0h-70v533h70l182 -271l183 271h71v-533h-70v412l-184 -269l-182 269v-412z" />
    </font>
</defs>
</svg>
